<?xml version="1.0" encoding="iso-8859-1"?>
<!-- Generator: Adobe Illustrator 26.1.0, SVG Export Plug-In . SVG Version: 6.00 Build 0)  -->
<svg version="1.1" xmlns="http://www.w3.org/2000/svg" xmlns:xlink="http://www.w3.org/1999/xlink" x="0px" y="0px"
	 viewBox="0 0 3710 3710" style="enable-background:new 0 0 3710 3710;" xml:space="preserve">
<g id="Background">
</g>
<g id="Illustration">
	<g>
		<path style="fill:#F4F7FA;" d="M642.618,922.389c-89.751,115.384-208.544,329.646-225.434,590.423
			c-24.067,371.577,182.501,471.03,203.965,869.531c25.628,475.774-245.85,760.417-150.29,837.328
			c92.552,74.489,336.872-200.846,697.772-375.725c860.224-416.829,1514.29,157.906,1900.087-182.493
			c365.084-322.123,294.039-1290.905-257.64-1814.209C2169.907,239.051,1051.95,396.154,642.618,922.389z"/>
		<g>
			<linearGradient id="SVGID_1_" gradientUnits="userSpaceOnUse" x1="2696.7715" y1="3832.7996" x2="2675.3037" y2="3568.0298">
				<stop  offset="0" style="stop-color:#311944"/>
				<stop  offset="1" style="stop-color:#893976"/>
			</linearGradient>
			<path style="fill:url(#SVGID_1_);" d="M2661.968,3140.75c-2.067,4.413-31.644,57.439-53.311,74.378
				c-21.666,16.938-7.448,23.899,15.259,20.419c22.707-3.481,64.249-39.16,69.716-46.963
				C2699.1,3180.782,2665.838,3132.487,2661.968,3140.75z"/>
			
				<linearGradient id="SVGID_00000073717356580191032630000015890690971922246817_" gradientUnits="userSpaceOnUse" x1="2513.0471" y1="2820.8569" x2="2733.8279" y2="2820.8569">
				<stop  offset="0" style="stop-color:#444B8C"/>
				<stop  offset="0.9964" style="stop-color:#26264F"/>
			</linearGradient>
			<path style="fill:url(#SVGID_00000073717356580191032630000015890690971922246817_);" d="M2513.047,2496.199
				c4.862,55.261,16.228,138.509,46.513,236.146c21.393,68.967,36.961,95.908,54.475,155.816
				c17.474,59.77,35.631,148.073,32.588,263.997c14.371,0.528,28.744,1.057,43.115,1.584
				c35.916-78.086,62.263-175.358,28.444-267.545c-15.921-43.398-30.444-45.512-42.936-88.258
				c-37.644-128.812,62.468-218.337,26.239-275.502C2686.253,2498.402,2643.772,2475.131,2513.047,2496.199z"/>
			
				<linearGradient id="SVGID_00000151530520899306928110000018134784535843993256_" gradientUnits="userSpaceOnUse" x1="2560.2102" y1="2820.8655" x2="2733.8279" y2="2820.8655">
				<stop  offset="0" style="stop-color:#444B8C"/>
				<stop  offset="0.9964" style="stop-color:#26264F"/>
			</linearGradient>
			<path style="opacity:0.06;fill:url(#SVGID_00000151530520899306928110000018134784535843993256_);" d="M2718.182,2886.198
				c-15.921-43.398-30.444-45.512-42.936-88.258c-37.644-128.812,62.468-218.337,26.239-275.502
				c-13.225-20.87-47.034-41.145-141.275-32.337c22.762,33.191,43.828,75.518,51.826,126.556
				c10.937,69.774-13.024,88.798-1.193,158.624c16.621,98.104,73.341,116.179,92.3,196.716
				c9.298,39.49,10.561,98.639-30.168,181.129c5.589,0.206,11.176,0.412,16.763,0.617
				C2725.655,3075.656,2752.001,2978.385,2718.182,2886.198z"/>
			
				<linearGradient id="SVGID_00000075152483343387841740000010146666558064711098_" gradientUnits="userSpaceOnUse" x1="2977.2078" y1="3810.0603" x2="2955.7397" y2="3545.291">
				<stop  offset="0" style="stop-color:#311944"/>
				<stop  offset="1" style="stop-color:#893976"/>
			</linearGradient>
			<path style="fill:url(#SVGID_00000075152483343387841740000010146666558064711098_);" d="M2906.348,3139.803
				c0,0-0.919,70.796,12.2,88.686c13.12,17.89,23.854,21.468,28.624,0c4.771-21.468-20.274-82.45-25.046-87.739
				C2917.356,3135.461,2906.348,3139.803,2906.348,3139.803z"/>
			
				<linearGradient id="SVGID_00000006675045271406355380000004222394593152880001_" gradientUnits="userSpaceOnUse" x1="2596.5315" y1="2800.7524" x2="2954.6123" y2="2800.7524">
				<stop  offset="0" style="stop-color:#444B8C"/>
				<stop  offset="0.9964" style="stop-color:#26264F"/>
			</linearGradient>
			<path style="fill:url(#SVGID_00000006675045271406355380000004222394593152880001_);" d="M2596.531,2458.035
				c59.297,93.626,122.479,207.437,180.091,341.098c55.486,128.729,93.981,248.436,121.113,352.686
				c11.709-0.681,23.416-1.364,35.125-2.046c16.475-53.276,32.752-134.084,11.927-224.218
				c-19.13-82.798-56.648-117.543-94.22-205.137c-25.086-58.484-53.203-147.54-56.054-270.732
				C2728.52,2452.469,2662.525,2455.252,2596.531,2458.035z"/>
			
				<linearGradient id="SVGID_00000108311534548048837920000002494096061382304167_" gradientUnits="userSpaceOnUse" x1="2626.1311" y1="2279.0413" x2="2712.002" y2="2669.0391">
				<stop  offset="0" style="stop-color:#FF9085"/>
				<stop  offset="1" style="stop-color:#FB6FBB"/>
			</linearGradient>
			<path style="fill:url(#SVGID_00000108311534548048837920000002494096061382304167_);" d="M2589.376,2121.707
				c44.683-35.272,90.81-41.761,100.183-42.936c10.196-1.279,100.036-12.545,131.193,33.394
				c25.507,37.61-15.437,73.576-19.083,156.238c-5.234,118.642,74.52,148.613,52.476,217.062
				c-30.484,94.654-207.26,112.673-271.925,119.265c-53.023,5.406-88.324,8.489-112.108-14.312
				c-33.098-31.728-21.27-93.506,2.385-217.062c16.134-84.275,33.445-125.095,42.936-145.504
				C2534.565,2186.698,2551.302,2151.762,2589.376,2121.707z"/>
			
				<linearGradient id="SVGID_00000040553483324200390080000004967348641576079258_" gradientUnits="userSpaceOnUse" x1="2955.9663" y1="2206.4172" x2="3041.8372" y2="2596.4158">
				<stop  offset="0" style="stop-color:#FF9085"/>
				<stop  offset="1" style="stop-color:#FB6FBB"/>
			</linearGradient>
			<path style="fill:url(#SVGID_00000040553483324200390080000004967348641576079258_);" d="M2768.932,2092.593
				c25.751-24.312,83.216,24.395,141.268,6.453c59.253-18.313,88.319-96.542,103.761-163.393
				c5.566-5.566,11.13-11.131,16.697-16.698c14.902,12.276,59.519,52.215,66.79,114.495
				c10.437,89.399-62.544,169.402-139.542,196.788c-80.23,28.536-152.69-4.373-170.549-13.119
				C2751.478,2136.558,2755.627,2105.154,2768.932,2092.593z"/>
			
				<linearGradient id="SVGID_00000183207910450741154040000006001546281110394783_" gradientUnits="userSpaceOnUse" x1="2451.7202" y1="2411.5493" x2="2858.0066" y2="2411.5493">
				<stop  offset="0" style="stop-color:#FF9085"/>
				<stop  offset="1" style="stop-color:#FB6FBB"/>
			</linearGradient>
			<path style="opacity:0.3;fill:url(#SVGID_00000183207910450741154040000006001546281110394783_);" d="M2801.669,2268.403
				c0.91-20.625,4.142-38.341,8.083-53.902c-9.803,13.466-19.366,29.39-27.167,47.938c-42.516,101.097,11.303,174.69-15.503,230.182
				c-20.851,43.159-93.147,80.839-315.362,61.002c2.792,15.418,8.622,27.429,18.391,36.794
				c23.784,22.801,59.085,19.718,112.108,14.312c64.665-6.592,241.441-24.611,271.925-119.265
				C2876.189,2417.016,2796.434,2387.045,2801.669,2268.403z"/>
			
				<linearGradient id="SVGID_00000103971518166200858060000016449953835780324543_" gradientUnits="userSpaceOnUse" x1="2418.6931" y1="2224.0247" x2="2635.8899" y2="2224.0247">
				<stop  offset="0" style="stop-color:#FF9085"/>
				<stop  offset="1" style="stop-color:#FB6FBB"/>
			</linearGradient>
			<path style="fill:url(#SVGID_00000103971518166200858060000016449953835780324543_);" d="M2596.531,2116.322
				c0,0-141.784,79.278-171.741,138.962c-29.958,59.684,55.64,112.737,144.119,44.128c56.907-44.128,64.696-86.504,66.981-76.227
				L2617.208,2204l-56.998,10.502L2596.531,2116.322z"/>
			
				<linearGradient id="SVGID_00000117656300497364704560000005408696015070992031_" gradientUnits="userSpaceOnUse" x1="2514.6064" y1="1903.9692" x2="3219.4622" y2="1903.9692">
				<stop  offset="0" style="stop-color:#444B8C"/>
				<stop  offset="0.9964" style="stop-color:#26264F"/>
			</linearGradient>
			<path style="fill:url(#SVGID_00000117656300497364704560000005408696015070992031_);" d="M2521.125,2270.799
				c39.199-22.123,78.096-45.771,116.364-69.989c38.323-24.235,76.105-49.336,113.3-75.272
				c74.318-51.919,146.541-107.074,213.498-168.085c66.732-61.079,128.813-128.001,172.972-207.49
				c23.078-38.998,44.735-79.031,61.028-121.209c7.799-21.11,14.668-42.906,16.143-65.201c0.44-5.563,0.15-11.104-0.455-16.569
				c-0.8-5.422-2.24-10.744-4.759-15.471c-2.513-4.702-6.185-8.772-10.842-11.255c-4.654-2.47-10.119-3.422-15.374-2.698
				l-0.035,0.004c-0.978,0.135-1.88-0.55-2.016-1.528c-0.133-0.966,0.534-1.859,1.492-2.011c6.013-0.951,12.271,0,17.743,2.764
				c5.475,2.773,9.829,7.437,12.75,12.67c2.938,5.266,4.602,11.053,5.573,16.85c0.769,5.813,1.174,11.677,0.832,17.471
				c-1.094,23.26-7.691,45.529-15.182,67.132c-15.685,43.09-36.723,83.829-59.177,123.532
				c-11.177,19.907-22.949,39.394-35.531,58.686c-3.215,4.749-6.601,9.376-9.896,14.072c-3.361,4.643-6.516,9.453-10.108,13.915
				c-7.072,9.009-13.833,18.294-21.312,26.964c-29.177,35.329-60.979,68.339-94.117,99.828
				c-66.393,62.92-138.043,119.884-211.837,173.622c-36.933,26.844-74.465,52.855-112.568,78.011
				c-38.141,25.191-76.552,49.603-116.154,72.989c-5.942,3.509-13.604,1.537-17.114-4.406c-3.508-5.943-1.536-13.605,4.406-17.114
				c0.052-0.031,0.105-0.061,0.157-0.091L2521.125,2270.799z"/>
			
				<linearGradient id="SVGID_00000152231216542192351890000004372717781391269017_" gradientUnits="userSpaceOnUse" x1="2629.5049" y1="2184.575" x2="2670.6519" y2="2377.7866">
				<stop  offset="0" style="stop-color:#FFC444"/>
				<stop  offset="0.9964" style="stop-color:#F36F56"/>
			</linearGradient>
			<path style="fill:url(#SVGID_00000152231216542192351890000004372717781391269017_);" d="M2605.662,2220.715
				c0,0,4.483-27.988,25.066-28.343c20.583-0.355,33.37,7.606,35.421,16.177C2668.201,2217.119,2630.406,2205.599,2605.662,2220.715
				z"/>
			
				<linearGradient id="SVGID_00000010295803366011947210000000830997185657538988_" gradientUnits="userSpaceOnUse" x1="3062.5493" y1="2092.3523" x2="3103.6958" y2="2285.5613">
				<stop  offset="0" style="stop-color:#FFC444"/>
				<stop  offset="0.9964" style="stop-color:#F36F56"/>
			</linearGradient>
			<path style="fill:url(#SVGID_00000010295803366011947210000000830997185657538988_);" d="M3018.135,1942.327
				c0,0-16.585-5.86-11.639-17.954c4.946-12.095,23.305-37.506,21.153-38.199c-2.152-0.693,15.959,1.721,15.448,10.99
				S3018.135,1942.327,3018.135,1942.327z"/>
			
				<linearGradient id="SVGID_00000119796444596129196680000015327811754234695849_" gradientUnits="userSpaceOnUse" x1="2638.7097" y1="2035.9553" x2="2797.0312" y2="2035.9553">
				<stop  offset="0.0036" style="stop-color:#6165D7"/>
				<stop  offset="1" style="stop-color:#AA80F9"/>
			</linearGradient>
			<path style="fill:url(#SVGID_00000119796444596129196680000015327811754234695849_);" d="M2638.71,2102.027
				c0,0,46.232-49.033,49.501-61.175c3.269-12.141,14.944-63.772,18.212-73.448s13.528-16.665,51.188-8.741
				s46.435,45.733,34.351,70.361c-12.083,24.628-43.462,65.614-43.462,65.614C2722.425,2123.375,2684.306,2122.034,2638.71,2102.027
				z"/>
			
				<linearGradient id="SVGID_00000009585952544176640090000003991039717467100818_" gradientUnits="userSpaceOnUse" x1="2704.8337" y1="1964.2593" x2="2772.8152" y2="2169.9919">
				<stop  offset="0" style="stop-color:#FFC444"/>
				<stop  offset="0.9964" style="stop-color:#F36F56"/>
			</linearGradient>
			<path style="fill:url(#SVGID_00000009585952544176640090000003991039717467100818_);" d="M2719.461,1975.976
				c-5.537,0.332-10.479,3.608-12.864,8.615c-7.207,15.124-22.496,50.947-10.999,61.155c14.7,13.051,38.398-10.681,54.074-29.016
				C2763.674,2000.355,2745.132,1974.433,2719.461,1975.976z"/>
		</g>
		<g>
			
				<linearGradient id="SVGID_00000181064596112534254440000003665537481854781084_" gradientUnits="userSpaceOnUse" x1="724.3482" y1="1101.9617" x2="2245.1162" y2="1101.9617">
				<stop  offset="0.0036" style="stop-color:#6165D7"/>
				<stop  offset="1" style="stop-color:#AA80F9"/>
			</linearGradient>
			<path style="fill:url(#SVGID_00000181064596112534254440000003665537481854781084_);" d="M2235.777,985.309
				c44.384-74.309-80.267-224.123-146.31-286.688c-195.933-185.61-514.088-207.726-558.255-127.487
				c-13.786,25.046,8.858,42.378-3.851,72.728c-35.088,83.797-238.151,24.36-420.683,79.451
				c-160.893,48.56-325.951,192.176-370.067,372.913c-68.156,279.228,164.212,598.489,292.194,579.801
				c152.961-22.336,49.653-511.771,337.527-694.296C1674.785,786.159,2156.688,1117.725,2235.777,985.309z"/>
			
				<linearGradient id="SVGID_00000169522914087008235720000017101010021015529650_" gradientUnits="userSpaceOnUse" x1="738.4103" y1="1130.2196" x2="2245.1162" y2="1130.2196">
				<stop  offset="0.0036" style="stop-color:#6165D7"/>
				<stop  offset="1" style="stop-color:#AA80F9"/>
			</linearGradient>
			<path style="opacity:0.3;fill:url(#SVGID_00000169522914087008235720000017101010021015529650_);" d="M2089.467,698.622
				c-8.047-7.622-16.318-14.942-24.747-22.016c-276.432-96.383-353.27-103.26-362.059-84.872
				c-9.046,18.921,57.398,57.334,46.514,96.605c-14.149,51.052-143.702,48.423-318.439,64.403
				c-147.853,13.522-471.671,43.137-486.602,132.385c-8.283,49.51,84.775,79.824,75.137,135.962
				c-12.018,69.996-162.892,58.982-236.42,143.123c-26.657,30.504-47.383,78.388-44.097,157.695
				c46.69,200.301,196.344,367.804,290.052,354.12c152.961-22.336,49.653-511.771,337.527-694.296
				c308.453-195.573,790.355,135.994,869.444,3.578C2280.161,911,2155.51,761.186,2089.467,698.622z"/>
			
				<linearGradient id="SVGID_00000039847127530377413070000016260436829569905808_" gradientUnits="userSpaceOnUse" x1="1803.0187" y1="2567.615" x2="2103.5669" y2="2238.4429">
				<stop  offset="0.0036" style="stop-color:#6165D7"/>
				<stop  offset="1" style="stop-color:#AA80F9"/>
			</linearGradient>
			<path style="fill:url(#SVGID_00000039847127530377413070000016260436829569905808_);" d="M2080.441,2650.271
				c31.075-14.078,31.761-127.609-27.14-201.576c-60.322-75.751-159.368-80.153-207.522-82.293
				c-130.033-5.779-312.958,49.098-321.278,142.075c-7.018,78.448,110.713,178.992,192.471,162.051
				c81.9-16.971,84.435-142.868,161.008-153.852C1968.477,2503.695,2039.421,2668.855,2080.441,2650.271z"/>
			<g>
				
					<linearGradient id="SVGID_00000025422059262600825530000005977890042403746434_" gradientUnits="userSpaceOnUse" x1="1518.7423" y1="1895.6555" x2="2059.1948" y2="1895.6555">
					<stop  offset="0.0036" style="stop-color:#6165D7"/>
					<stop  offset="1" style="stop-color:#AA80F9"/>
				</linearGradient>
				<path style="fill:url(#SVGID_00000025422059262600825530000005977890042403746434_);" d="M1541.653,1629.342
					c-46.853,40.372-20.864,193.452,68.977,269.771c99.898,84.863,207.062,13.924,311.239,104.477
					c81.975,71.254,82.731,173.515,106.387,169.603c25.268-4.179,49.201-124.963,10.875-236.195
					c-58.194-168.897-233.72-239.712-340.047-282.609C1628.167,1625.777,1571.452,1603.665,1541.653,1629.342z"/>
				
					<linearGradient id="SVGID_00000068650073430076984160000003330324853421678984_" gradientUnits="userSpaceOnUse" x1="1518.7423" y1="1895.6605" x2="2040.5609" y2="1895.6605">
					<stop  offset="0.0036" style="stop-color:#6165D7"/>
					<stop  offset="1" style="stop-color:#AA80F9"/>
				</linearGradient>
				<path style="opacity:0.3;fill:url(#SVGID_00000068650073430076984160000003330324853421678984_);" d="M1988.898,1933.469
					c-23.66-8.576-37.813,11.941-75.137,3.578c-76.933-17.239-80.286-118.641-146.696-132.385
					c-51.723-10.703-80.651,44.396-114.495,32.202c-25.549-9.206-48.589-54.864-39.127-213.296
					c-30.698-7.995-55.346-8.395-71.79,5.774c-46.853,40.372-20.864,193.452,68.977,269.771
					c99.898,84.863,207.062,13.924,311.239,104.477c81.975,71.254,82.731,173.515,106.387,169.603
					c3.905-0.646,7.774-4.091,11.391-9.839C2045.823,1997.917,2019.812,1944.674,1988.898,1933.469z"/>
			</g>
			
				<linearGradient id="SVGID_00000075850628336757688100000010673390805035503781_" gradientUnits="userSpaceOnUse" x1="1656.5742" y1="3349.6782" x2="1706.6658" y2="2895.2776">
				<stop  offset="0.0036" style="stop-color:#6165D7"/>
				<stop  offset="1" style="stop-color:#AA80F9"/>
			</linearGradient>
			<path style="fill:url(#SVGID_00000075850628336757688100000010673390805035503781_);" d="M1484.978,2535.223
				c-18.211,113.872,5.778,184.546,31.629,228.333c78.296,132.612,242.083,134.446,286.237,275.503
				c18.148,57.979,5.237,104.832,25.046,110.917c35.247,10.828,119.184-77.108,132.302-177.862
				c10.828-83.167-30.098-149.941-53.587-187.09C1788.469,2598.188,1558.464,2548.231,1484.978,2535.223z"/>
			
				<linearGradient id="SVGID_00000006703674823742909930000002152125217626919832_" gradientUnits="userSpaceOnUse" x1="2226.7305" y1="902.5853" x2="351.8749" y2="3085.1477">
				<stop  offset="0" style="stop-color:#FFC444"/>
				<stop  offset="0.9964" style="stop-color:#F36F56"/>
			</linearGradient>
			<path style="fill:url(#SVGID_00000006703674823742909930000002152125217626919832_);" d="M2618.619,1468.334
				c45.649-49.38-138.199-441.521-504.492-601.097c-47.315-20.613-441.263-184.572-785.233,41.137
				c-361.987,237.532-353.757,700.008-348.98,796.106c27.298,549.15,530.399,973.512,626.143,926.692
				c16.875-8.252,35.114-37.999,32.202-64.403c-5.278-47.848-78.458-70.579-110.917-89.449
				c-153.108-89.01-221.06-569.343,29.598-737.151c108.024-72.319,177.508,20.932,460.582,3.67
				c306.052-18.665,583.857-148.606,576.052-196.788c-3.503-21.617-62.803-29.219-85.871-32.202
				c-107.95-13.956-189.01,41.562-192.38,34.64c-3.073-6.311,59.66-62.056,153.705-79.572
				C2559.977,1452.976,2601.952,1486.364,2618.619,1468.334z"/>
			
				<linearGradient id="SVGID_00000179616214206621638020000011689110570582413499_" gradientUnits="userSpaceOnUse" x1="978.6891" y1="1712.5792" x2="1940.176" y2="1712.5792">
				<stop  offset="0" style="stop-color:#FF9085"/>
				<stop  offset="1" style="stop-color:#FB6FBB"/>
			</linearGradient>
			<path style="fill:url(#SVGID_00000179616214206621638020000011689110570582413499_);" d="M1693.477,1118.374
				c43.203-125.388,131.485-231.674,246.699-305.693c-157.198-33.986-394.178-46.769-611.283,95.692
				c-361.987,237.532-353.757,700.008-348.98,796.106c27.298,549.15,530.399,973.512,626.143,926.692
				c16.875-8.252,35.114-37.999,32.202-64.403c-5.278-47.848-78.458-70.579-110.917-89.449
				c-153.108-89.01-221.06-569.343,29.598-737.151c79.555-53.26,138.22-16.723,276.679-0.659
				C1679.051,1563.022,1622.677,1323.864,1693.477,1118.374z"/>
			
				<linearGradient id="SVGID_00000131366972165388937700000000132605181980801697_" gradientUnits="userSpaceOnUse" x1="978.6939" y1="1885.0171" x2="2566.9026" y2="1885.0171">
				<stop  offset="0" style="stop-color:#FF9085"/>
				<stop  offset="1" style="stop-color:#FB6FBB"/>
			</linearGradient>
			<path style="opacity:0.3;fill:url(#SVGID_00000131366972165388937700000000132605181980801697_);" d="M2250.089,1611.452
				c-35.752-4.32-166.643-22.738-314.86-107.339c-280.327-160.006-308.124-377.235-425.777-368.53
				c-133.623,9.887-230.106,299.88-261.191,497.336c-61.32,389.517,88.196,696.251,46.513,712.014
				c-30.215,11.427-130.879-141.398-196.788-311.282c-93.516-241.047-102.592-479.139-79.023-681.698
				c-44.759,160.369-41.476,303.715-39.05,352.526c27.298,549.15,530.399,973.512,626.143,926.692
				c16.875-8.252,35.114-37.999,32.202-64.403c-5.278-47.848-78.458-70.579-110.917-89.449
				c-153.108-89.01-221.06-569.343,29.598-737.151c108.024-72.319,177.508,20.932,460.582,3.67
				c245.807-14.991,473.349-101.753,549.381-160.294C2477.057,1609.981,2369.255,1625.853,2250.089,1611.452z"/>
			
				<linearGradient id="SVGID_00000076585614580534343200000000646657022277962677_" gradientUnits="userSpaceOnUse" x1="2121.3245" y1="941.4655" x2="1354.2195" y2="2467.8452">
				<stop  offset="0" style="stop-color:#FF9085"/>
				<stop  offset="1" style="stop-color:#FB6FBB"/>
			</linearGradient>
			
				<circle style="opacity:0.3;fill:url(#SVGID_00000076585614580534343200000000646657022277962677_);" cx="2019.548" cy="1143.98" r="136.587"/>
			
				<linearGradient id="SVGID_00000148647486292945247960000011758602266088623251_" gradientUnits="userSpaceOnUse" x1="1955.1282" y1="1103.8184" x2="2323.542" y2="1364.2009">
				<stop  offset="0" style="stop-color:#444B8C"/>
				<stop  offset="0.9964" style="stop-color:#26264F"/>
			</linearGradient>
			
				<circle style="fill:url(#SVGID_00000148647486292945247960000011758602266088623251_);" cx="2019.002" cy="1148.962" r="106.034"/>
			
				<linearGradient id="SVGID_00000013908684250869182350000002318451623097719224_" gradientUnits="userSpaceOnUse" x1="2026.3792" y1="936.388" x2="1992.9849" y2="1220.2402">
				<stop  offset="0" style="stop-color:#444B8C"/>
				<stop  offset="0.9964" style="stop-color:#26264F"/>
			</linearGradient>
			<circle style="fill:url(#SVGID_00000013908684250869182350000002318451623097719224_);" cx="2001.15" cy="1150.837" r="44.993"/>
			
				<ellipse transform="matrix(0.2298 -0.9732 0.9732 0.2298 477.3623 2843.3755)" style="opacity:0.72;fill:#F4F7FA;" cx="2035.063" cy="1120.101" rx="23.88" ry="23.88"/>
			<g>
				
					<linearGradient id="SVGID_00000121269884203387227760000010548851709676519086_" gradientUnits="userSpaceOnUse" x1="697.4379" y1="1766.0865" x2="1194.0408" y2="1766.0865">
					<stop  offset="0.0036" style="stop-color:#6165D7"/>
					<stop  offset="1" style="stop-color:#AA80F9"/>
				</linearGradient>
				<path style="fill:url(#SVGID_00000121269884203387227760000010548851709676519086_);" d="M1060.312,1464.657
					c2.818-28.213-6.772-54.6,12.628-82.194c27.067-38.504,92.767-54.029,114.495-32.202
					c23.091,23.197-20.606,71.367-35.401,162.494c-23.639,145.606,59.817,195.733,24.667,266.861
					c-47.647,96.415-214.197,31.032-298.943,140.024c-79.847,102.69-8.122,258.63-48.119,271.442
					c-30.455,9.755-97.828-72.403-121.651-164.586c-26.706-103.337-3.51-237.952,78.715-332.75
					C891.746,1572.64,1050.188,1566.02,1060.312,1464.657z"/>
				
					<linearGradient id="SVGID_00000046317659655201879370000004291296910875583383_" gradientUnits="userSpaceOnUse" x1="756.9744" y1="1766.0869" x2="1194.0408" y2="1766.0869">
					<stop  offset="0.0036" style="stop-color:#6165D7"/>
					<stop  offset="1" style="stop-color:#AA80F9"/>
				</linearGradient>
				<path style="opacity:0.3;fill:url(#SVGID_00000046317659655201879370000004291296910875583383_);" d="M1152.034,1512.755
					c14.794-91.127,58.491-139.297,35.401-162.494c-14.887-14.955-50.41-12.37-80.011,3.119
					c-10.393,35.937-19.74,79.53-23.749,129.266c-10.025,124.379,20.402,199.23-17.89,225.411
					c-45.893,31.378-144.046-38.912-157.43-17.89c-9.275,14.567,35.383,52.197,25.046,67.981
					c-9.52,14.534-50.156-13.146-85.871-3.578c-69.566,18.636-92.874,171.198-90.375,265.924
					c1.431,54.29,11.705,103.314,25.949,146.109c17.905,18.504,34.912,28.201,46.536,24.478
					c39.997-12.811-31.728-168.752,48.119-271.442c84.746-108.991,251.296-43.608,298.943-140.024
					C1211.851,1708.488,1128.395,1658.362,1152.034,1512.755z"/>
			</g>
		</g>
		
			<linearGradient id="SVGID_00000062179385504560679370000005996141654469553590_" gradientUnits="userSpaceOnUse" x1="1783.3656" y1="3092.3894" x2="1751.1642" y2="3596.8811">
			<stop  offset="0" style="stop-color:#444B8C"/>
			<stop  offset="0.9964" style="stop-color:#26264F"/>
		</linearGradient>
		<path style="fill:url(#SVGID_00000062179385504560679370000005996141654469553590_);" d="M973.279,2072.487
			c-35.252,11.83-70.008,25.076-104.03,39.925c-34.006,14.851-67.478,30.95-99.582,49.413
			c-16.143,9.071-31.796,18.942-47.261,29.049c-15.29,10.363-30.32,21.091-44.703,32.603c-28.627,23.08-55.452,48.666-76.711,78.162
			c-10.633,14.694-19.782,30.368-26.639,46.835c-1.861,4.066-3.064,8.345-4.64,12.498c-1.347,4.218-2.419,8.505-3.571,12.76
			c-1.751,8.611-3.229,17.292-3.276,25.999c-0.018,2.173-0.161,4.35-0.086,6.517l0.447,6.486l0.213,3.242l0.491,3.211
			c0.367,2.133,0.562,4.292,1.055,6.404c1.665,8.507,4.464,16.78,7.848,24.814c6.967,16.025,17.002,30.834,28.842,44.171
			c23.735,26.759,53.72,48.178,85.333,65.964c15.87,8.901,32.258,16.678,49.085,22.973c16.829,6.296,34.22,10.865,51.928,13.903
			c35.486,5.912,72.011,5.505,108.19,1.574c36.211-4.191,72.101-12.05,107.519-21.745c8.821-2.584,17.715-4.866,26.477-7.693
			l26.303-8.381l26.091-9.135c8.721-2.964,17.271-6.477,25.916-9.688l12.931-4.921l12.829-5.221l25.626-10.527l25.402-11.118
			l12.692-5.575l12.585-5.841c134.319-62.251,263.08-136.764,388.785-215.759c125.603-79.31,248.565-162.894,369.154-249.877
			c60.254-43.561,120.299-87.469,180.154-131.743c59.948-44.147,119.718-88.675,180.804-131.574
			c30.441-21.575,61.379-42.534,92.513-63.206l23.577-15.195c7.844-5.086,15.715-10.132,23.72-14.985l23.894-14.729l24.219-14.229
			l12.128-7.081l12.315-6.777l24.659-13.489c16.76-8.424,33.241-17.356,50.347-25.101c8.525-3.917,16.889-8.163,25.542-11.807
			l25.874-11.091c8.604-3.738,17.481-6.846,26.206-10.298l13.138-5.053c4.392-1.648,8.876-3.058,13.309-4.598
			c8.903-2.98,17.749-6.124,26.695-8.956l27.052-7.828c8.962-2.785,18.157-4.74,27.258-7.016c9.135-2.137,18.178-4.651,27.427-6.273
			l27.603-5.418c9.229-1.628,18.529-2.853,27.787-4.296l13.894-2.086l13.973-1.482l27.937-2.877l28.022-1.699
			c4.67-0.25,9.333-0.64,14.006-0.773l14.025-0.249l28.035-0.464c9.345,0.069,18.688,0.184,28.022,0.5
			c37.341,1.29,74.582,4.582,111.511,9.818c0.979,0.139,1.66,1.044,1.52,2.022c-0.133,0.958-1.006,1.629-1.96,1.529
			c-73.932-7.912-148.54-7.667-222.202-0.331l-27.53,3.568l-13.753,1.822l-13.66,2.421c-9.094,1.665-18.227,3.109-27.28,4.951
			l-27.05,6.052c-35.875,8.775-71.39,19.081-105.901,32.228c-4.328,1.597-8.704,3.06-12.993,4.763l-12.825,5.217
			c-8.517,3.56-17.172,6.767-25.57,10.609l-25.243,11.391c-8.438,3.74-16.607,8.087-24.92,12.099
			c-16.677,7.928-32.78,17.059-49.123,25.659l-24.078,13.77l-12.02,6.912l-11.873,7.189l-23.735,14.382l-23.444,14.896
			c-7.848,4.905-15.578,10.011-23.285,15.159l-23.157,15.373c-30.612,20.933-61.04,42.154-91.053,64.047
			c-120.258,87.224-237.922,178.722-358.706,266.193c-60.371,43.762-121.333,86.769-182.993,128.771
			c-61.641,42.031-123.951,83.1-187.303,122.592c-63.287,39.586-127.356,77.995-192.63,114.405
			c-65.243,36.451-131.818,70.701-200.097,101.56l-12.783,5.82l-12.911,5.563l-25.837,11.085l-26.104,10.507l-13.071,5.21
			l-13.197,4.917c-8.828,3.208-17.534,6.708-26.461,9.674l-26.681,9.126l-26.964,8.381c-8.976,2.822-18.141,5.112-27.201,7.692
			c-36.417,9.775-73.607,17.3-111.429,21.274c-37.82,3.658-76.428,3.695-114.416-3.097c-18.945-3.477-37.661-8.637-55.624-15.604
			c-17.969-6.964-35.2-15.418-51.688-24.923c-32.922-19.038-64.042-42.076-89.388-71.499
			c-12.602-14.689-23.507-31.234-31.094-49.507c-3.693-9.161-6.721-18.664-8.479-28.473c-0.515-2.432-0.727-4.925-1.097-7.384
			l-0.491-3.7l-0.201-3.727l-0.377-7.449c-0.044-2.481,0.141-4.958,0.206-7.435c0.244-9.929,2.04-19.668,4.177-29.239
			c1.338-4.703,2.619-9.439,4.18-14.054c1.779-4.524,3.22-9.208,5.295-13.584c7.71-17.813,17.977-34.199,29.469-49.409
			c23.066-30.473,51.278-56.078,81.056-79c14.957-11.419,30.495-21.982,46.258-32.146c15.924-9.901,32.006-19.531,48.533-28.328
			c65.886-35.64,135.877-62.736,207.209-84.313c0.947-0.287,1.944,0.248,2.231,1.194
			C974.706,2071.2,974.191,2072.18,973.279,2072.487z"/>
	</g>
</g>
</svg>
