<svg id="eLd7zPsDT501" xmlns="http://www.w3.org/2000/svg" xmlns:xlink="http://www.w3.org/1999/xlink" viewBox="0 0 500 500" shape-rendering="geometricPrecision" text-rendering="geometricPrecision"><g><g><circle r="39.499" transform="translate(424.741 193.203)" fill="#f78d8d"/><circle r="29.383" transform="translate(133.799 105.054)" fill="#f78d8d"/><path d="M394.547,410.494c-25.195,13.359-57.132,16.929-86.08,18.345-43.796,2.142-88.893-.416-129.184-17.485-62.088-26.303-108.449-86.271-128.024-149.089-10.708-34.363-13.653-92.446,26.363-110.578c19.442-8.81,34.048,4.983,52.296,9.046c9.136,2.035,19.199,1.616,27.236-3.128c6.495-3.834,11.112-10.109,14.928-16.557c8.961-15.139,14.467-32.148,24.557-46.657c10.788-15.513,26.354-27.52,43.019-36.392c30.822-16.408,67.153-17.763,98.162-1.017c20.978,11.329,37.416,31.724,40.977,55.053c5.631,36.896-24.73,68.625-18.393,105.574c2.764,16.115,6.63,27.088,20.544,36.17c17.738,11.578,35.152,23.876,46.27,42.249c12.246,20.236,15.035,45.796,7.434,68.138-7.578,22.277-22.125,36.795-40.105,46.328Z" fill="#f78d8d"/></g><g id="eLd7zPsDT507"><path d="M154.187,136.46c.274-1.462-.645-3.444-3.468-6.142-2.103-2.01-5.623-2.381-8.11-.855c1.261-5.714-3.167-12.013-9.034-12.851-4.402-.629-8.912,1.918-11.073,5.692c1.984-6.597,3.461-13.422,1.913-20.05-1.872-8.013-9.954-15.23-18.017-13.138-4.483,1.163-7.913,4.899-9.816,9.068-2.101,4.602-2.825,8.763-3.089,13.755-1.325-3.845-5.599-6.308-9.71-6.077s-7.866,2.855-9.971,6.345c-2.105,3.491-2.684,7.735-2.201,11.768-2.527-1.943-6.394-1.949-8.928-.015-2.533,1.934-3.496,5.629-2.222,8.528-2.193-1.99-5.748-2.332-8.29-.799-1.154.696-2.694,2.767-3.401,4.769h105.417Z" fill="#ededed"/><path d="M450.225,118.846c.274-1.462-.645-3.444-3.468-6.141-2.103-2.01-5.623-2.381-8.11-.855c1.261-5.713-3.167-12.013-9.034-12.851-4.402-.629-8.913,1.918-11.073,5.692c1.984-6.597,3.461-13.422,1.913-20.05-1.872-8.013-9.954-15.23-18.017-13.138-4.483,1.163-7.913,4.899-9.816,9.068-2.1,4.603-2.824,8.763-3.088,13.755-1.325-3.845-5.599-6.308-9.71-6.077s-7.866,2.855-9.971,6.345c-2.105,3.491-2.684,7.735-2.201,11.768-2.527-1.943-6.394-1.949-8.928-.015-2.533,1.934-3.496,5.629-2.222,8.528-2.193-1.99-5.748-2.332-8.29-.799-1.154.696-2.694,2.767-3.401,4.768h105.416Z" fill="#ededed"/></g><g><g><path d="M97.604,218.116c0,0,1.188,16.922,10.998,26.724c9.811,9.802,16.362,10.388,16.362,10.388s.038-10.858-7.34-20.686c-7.378-9.827-20.02-16.426-20.02-16.426Z" fill="#ffe7b3"/><path d="M133.157,269.134c0,0-18.283,3.144-35.091-21.279c0,0,23.294.91,35.091,21.279Z" fill="#ffe7b3"/><path d="M141.134,280.155c0,0-1.589-.346-6.613.976s-15.424,4.999-39.461-9.337c0,0,15.126-4.39,27.91-.677c12.784,3.711,17.225,5.975,18.164,9.038Z" fill="#ffe7b3"/><path d="M141.686,275.759c0,0,2.195-.583,1.488-10.779s4.156-20.786,15.22-29.759c0,0,1.533,14.17-1.892,23.86s-11.73,13.713-12.856,19.168l-1.96-2.49Z" fill="#ffe7b3"/><path d="M149.436,289.62c0,0-2.117.387-7.407,3.827s-31.088,1.365-39.908-4.015c0,0,9.604-6.14,20.395-5.897s18.545,3.556,19.85,3.715s5.634.903,5.634.903l1.436,1.467Z" fill="#ffe7b3"/><path d="M151.771,287.97c0,0,1.469-2.905.975-7.768s-.616-19.719,16.604-33.748c0,0,.291,17.028-3.272,26.057s-11.628,11.485-12.712,17.59l-1.595-2.131Z" fill="#ffe7b3"/><path d="M163.939,304.371l-1.656-1.489c0,0-4.359-.825-10.247-2.19s-26.381-1.717-38.12,9.109c0,0,20.408,6.365,29.583,3.614c9.176-2.75,17.371-9.418,20.44-9.044Z" fill="#ffe7b3"/><path d="M163.594,300.893c0,0,2.39-3.013,2.287-10.984s10.321-22.399,22.531-29.942c0,0-1.449,16.815-7.861,27.432-6.412,10.616-13.078,11.283-14.546,15.938l-2.411-2.444Z" fill="#ffe7b3"/><path d="M178.127,315.495c0,0,1.26-1.239,1.355-3.757s-2.7-14.978,5.917-27.547s13.809-15.228,13.809-15.228-1.288,19.053-5.18,27.181c-3.891,8.128-14.245,17.488-14.618,20.454l-1.283-1.103Z" fill="#ffe7b3"/><path d="M189.194,327.601c0,0,1.984.027,1.943-4.925s-.82-21.609,21.77-39.714c0,0,1.04,12.818-8.504,30.795-9.544,17.978-15.209,13.844-15.209,13.844Z" fill="#ffe7b3"/><path d="M175.628,316.05c0,0-2.77.952-7.395-.903-4.625-1.856-28.084-3.216-42.525,13.303c0,0,19.652,8.423,34.092,2.659s13.314-12.032,17.624-13.012l-1.796-2.047Z" fill="#ffe7b3"/><path d="M186.993,327.881c0,0-3.551,3.32-5.97,3.239-2.419-.08-23.326-2.634-34.999,17.449c0,0,16.492,3.305,26.097-2.835c9.604-6.14,9.266-10.483,12.413-12.68l3.994-3.595-1.535-1.578Z" fill="#ffe7b3"/><path d="M122.437,254.548c0,0,16.955,24.811,25.561,33.606c8.607,8.795,54.422,55.245,59.874,61.073l1.487-3.045c0,0-38.64-37.555-52.039-51.805-1.258-1.338-2.567-2.789-3.905-4.318-12.91-14.757-28.581-36.891-28.581-36.891l-2.397,1.38Z" fill="#ffe7b3"/><path d="M133.647,265.229c0,0,1.28-1.113.015-4.274s-3.554-10.078-.982-19.315s7.871-16.36,7.871-16.36s3.317,12.627,1.942,22.253-5.014,14.119-6.286,16.311-1.123,3.302-1.123,3.302l-1.437-1.917Z" fill="#ffe7b3"/><g><path d="M124.965,255.228c-2.964-2.502-5.699-5.252-8.321-8.099-2.629-2.844-5.096-5.835-7.464-8.905-2.326-3.102-4.527-6.304-6.518-9.637-1.961-3.35-3.723-6.831-5.057-10.471c2.048,3.295,4.136,6.506,6.307,9.669c2.22,3.13,4.456,6.24,6.784,9.29c4.637,6.116,9.475,12.073,14.269,18.153Z" fill="#ffa196"/></g><g><path d="M135.085,267.146c-.179-3.542-.106-7.076.064-10.604.162-3.529.473-7.048.873-10.559.436-3.507.932-7.01,1.664-10.476.719-3.464,1.576-6.92,2.865-10.227-.521,3.505-.959,6.983-1.399,10.467l-1.241,10.459-1.289,10.467c-.447,3.492-.93,6.982-1.537,10.473Z" fill="#ffa196"/></g><g><path d="M98.066,247.855c3.069,1.562,6.048,3.25,9.001,4.978c2.959,1.717,5.87,3.506,8.786,5.284c2.896,1.81,5.794,3.614,8.67,5.456l8.634,5.561c-3.246-1.163-6.343-2.68-9.38-4.277-3.045-1.59-5.999-3.333-8.923-5.122-2.907-1.817-5.784-3.679-8.585-5.656-2.808-1.968-5.569-4.005-8.203-6.224Z" fill="#ffa196"/></g><g><path d="M95.06,271.793c3.935-.089,7.859.106,11.772.418c3.915.301,7.814.788,11.698,1.39c1.94.309,3.873.679,5.804,1.048c1.919.443,3.85.82,5.746,1.37c3.793,1.035,7.59,2.243,11.055,4.135-3.759-1.155-7.57-1.932-11.389-2.688-3.822-.735-7.661-1.395-11.515-1.986-7.699-1.257-15.433-2.305-23.171-3.687Z" fill="#ffa196"/></g><g><path d="M143.646,278.249c.079-3.852.563-7.68,1.229-11.471.67-3.793,1.573-7.548,2.707-11.24c1.188-3.673,2.544-7.307,4.301-10.762c1.774-3.438,3.876-6.741,6.511-9.555-2.002,3.294-3.671,6.693-5.162,10.178-.342.885-.69,1.766-1.054,2.64s-.647,1.783-.974,2.671c-.678,1.768-1.225,3.59-1.806,5.394-1.151,3.618-2.119,7.297-3.077,10.985-.931,3.697-1.815,7.411-2.675,11.16Z" fill="#ffa196"/></g><g><path d="M102.12,289.432c3.911-.681,7.852-1.096,11.798-1.406c3.947-.318,7.904-.477,11.865-.529c3.961-.017,7.927.037,11.885.36c3.952.311,7.917.777,11.768,1.763-3.963-.201-7.892-.247-11.828-.279-3.934-.019-7.869.008-11.806.058l-11.822.105c-3.945.03-7.894.033-11.86-.072Z" fill="#ffa196"/></g><g><path d="M153.416,290.059c-.001-3.947.462-7.88,1.14-11.769.68-3.892,1.659-7.733,2.872-11.506c1.287-3.749,2.826-7.423,4.742-10.904c1.977-3.446,4.33-6.697,7.18-9.427-2.248,3.249-4.169,6.614-5.859,10.106-1.603,3.535-3.027,7.14-4.257,10.824-1.225,3.686-2.264,7.436-3.23,11.215-.944,3.787-1.806,7.6-2.588,11.461Z" fill="#ffa196"/></g><g><path d="M113.917,309.802c4.039-1.235,8.148-2.189,12.278-3.026c4.129-.848,8.293-1.518,12.476-2.063c2.092-.267,4.194-.473,6.294-.676c2.108-.141,4.211-.327,6.327-.358c4.219-.113,8.481-.05,12.647.694-4.221.048-8.386.401-12.553.789-4.164.403-8.322.896-12.475,1.439-8.318,1.024-16.608,2.27-24.994,3.201Z" fill="#ffa196"/></g><g><path d="M166.005,303.337c.749-4.05,1.93-8.01,3.308-11.89c1.376-3.885,3.03-7.669,4.859-11.368c1.839-3.694,3.954-7.255,6.296-10.655c2.323-3.413,5.016-6.575,7.945-9.458-2.328,3.4-4.637,6.746-6.696,10.263-2.054,3.511-4.061,7.046-5.844,10.704-3.665,7.267-6.861,14.757-9.868,22.404Z" fill="#ffa196"/></g><g><path d="M125.708,328.449c4.408.029,8.781-.166,13.128-.532c4.344-.393,8.658-.981,12.906-1.865c4.25-.887,8.394-2.164,12.437-3.728c4.021-1.642,7.796-3.784,11.449-6.275-3.136,3.096-6.827,5.691-10.845,7.632-4.036,1.892-8.298,3.29-12.648,4.232-4.363.87-8.788,1.388-13.219,1.481-4.424.091-8.866-.13-13.208-.945Z" fill="#ffa196"/></g><g><path d="M179.41,316.597c.387-4.346,1.224-8.64,2.266-12.877c1.042-4.24,2.374-8.41,3.916-12.505c1.616-4.067,3.465-8.052,5.664-11.845c2.257-3.758,4.859-7.33,7.952-10.407-2.486,3.59-4.67,7.295-6.648,11.119-1.895,3.868-3.633,7.804-5.193,11.82-1.553,4.02-2.943,8.105-4.266,12.22-1.302,4.123-2.53,8.276-3.691,12.475Z" fill="#ffa196"/></g><g><path d="M189.194,327.601c1.085-.161,1.996-.782,2.857-1.384l1.208-1.04l1.094-1.163c1.393-1.612,2.618-3.363,3.717-5.198.52-.939,1.115-1.823,1.592-2.787l1.477-2.858l1.356-2.926.679-1.462.609-1.497c.842-1.983,1.69-3.964,2.42-5.998l1.173-3.021c.392-1.007.723-2.038,1.103-3.051c1.518-4.057,2.851-8.181,4.429-12.253-.813,4.279-1.755,8.541-3.018,12.716-.552,2.112-1.293,4.167-1.997,6.235-.686,2.074-1.534,4.092-2.361,6.119l-.64,1.512-.713,1.483c-.481.986-.938,1.983-1.439,2.958-1.091,1.911-2.132,3.849-3.432,5.64-1.241,1.822-2.684,3.522-4.296,5.043l-1.279,1.068c-.463.314-.923.628-1.394.918-.98.51-2.038.987-3.145.946Z" fill="#ffa196"/></g><g><path d="M146.025,348.569c7.375-2.427,14.555-5.172,21.455-8.515l2.582-1.261l2.527-1.363c.86-.425,1.672-.931,2.5-1.411.815-.501,1.675-.935,2.468-1.47c3.282-1.995,6.346-4.294,9.436-6.667-2.535,2.94-5.418,5.633-8.608,7.9-3.181,2.273-6.547,4.305-10.077,5.985-3.531,1.677-7.16,3.141-10.888,4.289-3.723,1.148-7.526,2.07-11.395,2.513Z" fill="#ffa196"/></g></g><g><path d="M383.497,162.059c0,0,.588,16.953-8.145,27.701-8.734,10.748-15.189,11.997-15.189,11.997s-1.174-10.796,5.138-21.322c6.311-10.527,18.196-18.376,18.196-18.376Z" fill="#ffe7b3"/><path d="M353.469,216.421c0,0,18.514,1.267,32.678-24.735c0,0-23.074,3.275-32.678,24.735Z" fill="#ffe7b3"/><path d="M346.686,228.195c0,0,1.544-.506,6.68.298s15.864,3.403,38.274-13.302c0,0-15.505-2.827-27.832,2.166s-16.508,7.696-17.122,10.838Z" fill="#ffe7b3"/><path d="M345.678,223.879c0,0-2.244-.356-2.607-10.57-.363-10.213-6.307-20.253-18.251-28.052c0,0-.043,14.251,4.377,23.54c4.42,9.29,13.101,12.447,14.792,17.758l1.689-2.676Z" fill="#ffe7b3"/><path d="M339.419,238.455c0,0,2.146.169,7.768,3.053s31.065-1.806,39.276-8.053c0,0-10.195-5.13-20.903-3.791s-18.074,5.424-19.356,5.715-5.509,1.472-5.509,1.472l-1.276,1.604Z" fill="#ffe7b3"/><path d="M336.924,237.051c0,0-1.765-2.741-1.783-7.628s-1.45-19.677-20.045-31.878c0,0,1.491,16.967,5.979,25.585s12.767,10.241,14.484,16.203l1.365-2.282Z" fill="#ffe7b3"/><path d="M326.535,254.603l1.491-1.65c0,0,4.249-1.264,9.963-3.221c5.714-1.956,26.061-4.392,38.869,5.182c0,0-19.633,8.407-29.047,6.604-9.413-1.802-18.262-7.6-21.276-6.915Z" fill="#ffe7b3"/><path d="M326.515,251.107c0,0-2.693-2.754-3.423-10.693-.731-7.939-12.608-21.23-25.542-27.49c0,0,3.2,16.578,10.688,26.486s14.188,9.893,16.135,14.374l2.142-2.677Z" fill="#ffe7b3"/><path d="M313.586,267.11c0,0-1.383-1.104-1.741-3.599s1.119-15.173-8.766-26.798-15.328-13.742-15.328-13.742s3.274,18.82,7.994,26.509c4.721,7.689,15.998,15.946,16.679,18.858l1.162-1.228Z" fill="#ffe7b3"/><path d="M303.844,280.278c0,0-1.971.229-2.448-4.701s-1.444-21.577-25.807-37.287c0,0,.305,12.855,11.679,29.765c11.374,16.911,16.576,12.223,16.576,12.223Z" fill="#ffe7b3"/><path d="M316.13,267.408c0,0,2.854.665,7.261-1.651s27.598-6.055,43.689,8.906c0,0-18.666,10.378-33.632,6.113-14.966-4.264-14.502-10.614-18.891-11.149l1.573-2.219Z" fill="#ffe7b3"/><path d="M306.063,280.332c0,0,3.879,2.941,6.277,2.615s22.926-4.993,36.637,13.795c0,0-16.059,4.966-26.254-.164s-10.313-9.484-13.673-11.349l-4.348-3.17l1.361-1.727Z" fill="#ffe7b3"/><path d="M362.606,200.823c0,0-14.27,26.404-21.911,36.027s-48.355,60.487-53.168,66.838l-1.797-2.877c0,0,34.507-41.286,46.344-56.823c1.112-1.459,2.261-3.035,3.432-4.692c11.298-15.992,24.571-39.602,24.571-39.602l2.529,1.129Z" fill="#ffe7b3"/><path d="M352.573,212.587c0,0-1.39-.977-.462-4.25s2.482-10.386-1.043-19.312-9.54-15.472-9.54-15.472-1.979,12.898.395,22.332c2.374,9.435,6.464,13.533,7.958,15.584c1.495,2.051,1.462,3.17,1.462,3.17l1.23-2.052Z" fill="#ffe7b3"/><g><path d="M360.163,201.756c4.134-6.535,8.324-12.953,12.297-19.509c1.996-3.271,3.895-6.592,5.776-9.93c1.829-3.367,3.57-6.773,5.261-10.259-.946,3.755-2.335,7.396-3.935,10.927-1.632,3.518-3.487,6.926-5.476,10.249-2.034,3.294-4.176,6.521-6.493,9.618-2.311,3.1-4.744,6.113-7.43,8.904Z" fill="#ffa196"/></g><g><path d="M351.343,214.641c-.969-3.411-1.814-6.833-2.625-10.26l-2.377-10.28-2.328-10.277c-.802-3.421-1.601-6.836-2.486-10.269c1.628,3.156,2.841,6.506,3.918,9.877c1.09,3.373,1.95,6.807,2.75,10.25.766,3.452,1.442,6.921,1.973,10.415.541,3.492.983,7.001,1.175,10.544Z" fill="#ffa196"/></g><g><path d="M386.147,191.686c-2.389,2.475-4.923,4.783-7.509,7.025-2.58,2.252-5.246,4.397-7.948,6.5-2.721,2.077-5.478,4.111-8.34,6.003-2.854,1.897-5.775,3.721-8.881,5.208l8.007-6.409c2.668-2.125,5.362-4.214,8.053-6.309c2.715-2.065,5.423-4.14,8.187-6.15c2.756-2.019,5.543-4.001,8.431-5.868Z" fill="#ffa196"/></g><g><path d="M391.641,215.191c-7.553,2.162-15.135,3.991-22.66,6.024-3.771.98-7.521,2.027-11.246,3.147-3.719,1.141-7.43,2.302-11.048,3.833c3.251-2.236,6.903-3.824,10.569-5.239c1.829-.74,3.71-1.311,5.573-1.947c1.882-.563,3.766-1.127,5.664-1.632c3.8-.994,7.626-1.875,11.488-2.572c3.857-.71,7.739-1.303,11.66-1.614Z" fill="#ffa196"/></g><g><path d="M343.989,226.555c-1.248-3.642-2.516-7.248-3.829-10.83-1.339-3.572-2.687-7.133-4.21-10.614-.767-1.736-1.501-3.492-2.361-5.181-.418-.85-.795-1.726-1.248-2.557-.453-.832-.891-1.673-1.324-2.519-1.848-3.314-3.863-6.524-6.197-9.596c2.914,2.529,5.349,5.598,7.473,8.836c2.109,3.257,3.837,6.732,5.404,10.265c1.514,3.557,2.806,7.2,3.869,10.906c1.059,3.704,1.941,7.464,2.423,11.29Z" fill="#ffa196"/></g><g><path d="M386.463,233.454c-3.935.507-7.862.906-11.789,1.278l-11.769,1.098c-3.921.351-7.838.724-11.749,1.143-3.911.432-7.815.878-11.736,1.481c3.729-1.372,7.626-2.24,11.525-2.951c3.904-.724,7.844-1.181,11.785-1.567c3.945-.351,7.898-.595,11.855-.681c3.957-.093,7.918-.08,11.878.199Z" fill="#ffa196"/></g><g><path d="M335.506,239.296c-1.183-3.762-2.439-7.468-3.773-11.138-1.357-3.661-2.784-7.286-4.387-10.828-1.61-3.539-3.403-6.979-5.367-10.332-2.047-3.301-4.309-6.452-6.883-9.454c3.119,2.423,5.799,5.416,8.125,8.641c2.269,3.267,4.184,6.763,5.857,10.361c1.601,3.629,2.978,7.351,4.061,11.154c1.083,3.8,1.954,7.667,2.367,11.596Z" fill="#ffa196"/></g><g><path d="M376.859,254.915c-8.438-.072-16.814-.468-25.194-.642-4.188-.118-8.375-.185-12.559-.163-4.185.038-8.366.111-12.57.493c4.069-1.164,8.303-1.66,12.513-1.977c2.109-.184,4.22-.213,6.332-.287c2.11-.012,4.223-.02,6.331.032c4.218.116,8.429.36,12.624.783c4.193.413,8.378.944,12.523,1.761Z" fill="#ffa196"/></g><g><path d="M324.373,253.784c-3.792-7.301-7.755-14.427-12.159-21.282-2.156-3.456-4.522-6.768-6.932-10.052-2.416-3.288-5.062-6.381-7.732-9.526c3.214,2.568,6.223,5.439,8.89,8.596c2.684,3.142,5.16,6.468,7.376,9.956c2.207,3.492,4.247,7.089,6.023,10.814c1.776,3.72,3.365,7.539,4.534,11.494Z" fill="#ffa196"/></g><g><path d="M367.08,274.663c-4.238,1.253-8.636,1.925-13.05,2.285-4.419.357-8.876.292-13.307-.131-4.425-.494-8.809-1.453-13.018-2.924-4.197-1.521-8.135-3.727-11.575-6.485c3.891,2.103,7.866,3.85,12.037,5.073c4.184,1.144,8.438,1.995,12.758,2.444c4.319.449,8.672.595,13.035.544c4.364-.077,8.736-.328,13.12-.806Z" fill="#ffa196"/></g><g><path d="M312.426,268.337c-1.595-4.06-3.251-8.066-4.976-12.036-1.746-3.96-3.557-7.882-5.522-11.722-1.973-3.836-4.113-7.573-6.402-11.228-2.368-3.602-4.927-7.065-7.773-10.382c3.397,2.745,6.358,6.031,8.996,9.538c2.583,3.549,4.84,7.323,6.872,11.204c1.962,3.917,3.723,7.929,5.203,12.042c1.48,4.11,2.761,8.298,3.602,12.584Z" fill="#ffa196"/></g><g><path d="M303.844,280.278c-1.098.154-2.2-.214-3.229-.621-.499-.241-.989-.507-1.482-.772l-1.384-.932c-1.762-1.349-3.374-2.892-4.799-4.577-1.48-1.649-2.718-3.469-4.003-5.259-.601-.919-1.159-1.864-1.741-2.796l-.864-1.402-.794-1.438c-1.034-1.932-2.089-3.853-2.988-5.847-.917-1.986-1.868-3.954-2.638-5.999-1.693-4.025-3.076-8.17-4.333-12.345c1.996,3.889,3.754,7.856,5.688,11.738.484.969.921,1.961,1.416,2.923l1.482,2.886c.939,1.95,1.99,3.833,3.035,5.72l.762,1.427.828,1.385l1.655,2.772l1.767,2.692c.575.911,1.259,1.729,1.875,2.61c1.284,1.713,2.686,3.33,4.239,4.791l1.21,1.046l1.31.912c.92.51,1.891,1.036,2.988,1.086Z" fill="#ffa196"/></g><g><path d="M348.976,296.742c-3.898-.046-7.779-.578-11.603-1.342-3.829-.763-7.593-1.85-11.28-3.159-3.687-1.312-7.247-2.991-10.647-4.928-3.408-1.93-6.555-4.315-9.383-6.98c3.321,2.044,6.608,4.019,10.081,5.669.844.452,1.746.797,2.608,1.212.874.393,1.734.814,2.634,1.149l2.656,1.099l2.7.991c7.213,2.624,14.643,4.625,22.234,6.289Z" fill="#ffa196"/></g></g><g><g><path d="M229.93,300.44c.385-6.018.77-12.036,1.156-18.053.822-12.844.766-27.627-9.749-34.807-7.538-5.148-19.029-5.068-24.867-11.874-3.572-4.165-4.175-10.002-5.683-15.286-3.225-11.302-11.243-20.919-22.022-26.416-5.846-2.981-12.482-4.81-17.724-8.593-8.841-6.378-12.39-17.233-15.531-27.503c1.284,10.091-3.524,20.45-6.663,30.616s-4.227,22.082,3.077,29.077c8.497,8.138,25.653,6.845,30.911,17.248c3.06,6.054.629,13.753,1.966,20.474c1.286,6.467,6.322,11.827,12.944,13.778c6.718,1.979,15.311.927,19.813,5.833c4.773,5.202,2.217,14.536,7.222,19.539c4.611,4.609,12.958,3.193,19.838,4.222l5.312,1.745Z" fill="#017a01"/></g><path d="M136.144,158.219c.354,13.229,2.314,30.54,8.098,40.93c1.443,2.592,3.097,5.116,5.417,7.032c2.359,1.947,5.302,3.184,8.016,4.699c8.947,4.996,15.525,13.292,18.181,22.929c1.521,5.52,1.891,11.646,5.406,16.14c5.167,6.605,15.355,7.611,22.617,12.181c13.32,8.382,14.586,26.887,25.499,37.843" fill="#017a01" stroke="#ffa196" stroke-width="0.942" stroke-linecap="round" stroke-linejoin="round" stroke-miterlimit="10"/></g><g><g><path d="M285.651,359.743c9.494,2.404,20.169-.406,27.186-7.156c3.288-3.163,5.769-7.065,9.034-10.25c7.318-7.139,17.763-9.999,27.745-12.476c3.803-.944,7.684-1.901,11.007-3.955c3.851-2.379,6.666-6.048,9.391-9.634c3.735-4.914,7.469-9.828,11.204-14.741c1.694-2.229,3.419-4.489,5.667-6.177c5.521-4.145,13.111-4.142,19.516-6.776c4.583-1.884,8.558-5.178,11.23-9.306c3.483-5.38,4.663-11.849,6.82-17.867c2.158-6.018,5.876-12.136,11.994-14.218-9.369-2.103-19.603-.117-27.466,5.33-8.205,5.684-14.07,14.965-23.599,18.04-8.737,2.819-19.388-.061-26.651,5.498-4.882,3.736-6.899,10.493-12.234,13.569-2.429,1.4-5.279,1.864-8.057,2.299-10.022,1.572-20.974,3.604-27.442,11.318-3.436,4.098-5.157,9.349-8.353,13.63-5.737,7.684-15.859,11.796-20.156,20.346-3.635,7.234-1.805,16.75,4.265,22.167" fill="#017a01"/></g><path d="M433.188,246.234c-6.684.552-13.907,1.488-18.7,6.115-2.31,2.23-3.823,5.12-5.318,7.947-5.37,10.153-11.681,20.806-22.222,25.605-8.945,4.073-19.983,3.405-27.791,9.331-7.397,5.615-10.514,16.242-19.15,19.733-3.491,1.411-7.378,1.397-11.095,2.033-9.276,1.587-17.68,7.555-22.148,15.729-1.272,2.327-2.245,4.824-3.789,6.985-4.876,6.824-14.981,9.772-17.352,17.785" fill="#017a01" stroke="#ffa196" stroke-width="0.89" stroke-miterlimit="10"/></g><g><path d="M290.393,380.81c0,0-6.967-3.117-6.199-7.633l11.48-2.614-9.54-4.702c0,0,6.697-12.016,10.814-14.763l15.916,6.868-13.514-10.671c0,0,9.051-12.914,14.617-14.181c0,0,7.333,12.44,16.217,17.472c0,0-1.378-13.615-12.877-20.403c0,0,11.519-10.22,17.895-8.054l13.946,26.491c0,0,1.34-12.967-9.019-25.804c0,0,10.056-5.546,17.637-2.93c0,0,2.924,17.061,6.922,21.578l-3.962-26.123c0,0,17.379.638,21.248,7.716s-1.541,19.887-1.541,19.887s7.135-7.051,8.346-17.457c0,0,11.999,2.695,16.492,13.972l-13.906,7.869l18.171-3.775c0,0,16.483,9.271,16.777,22.952c0,0-6.31,4.331-13.082,5.149s-10.41,2.486-10.41,2.486l-14.893-18.07l11.955,21.156c0,0-6.973,7.738-15.217,8.529c0,0-7.909-19.544-15.199-24.035c0,0,11.783,15.768,10.734,26.86c0,0-8.511,1.214-15.112,7.42c0,0-4.059-23.677-10.253-28.055c0,0,6.717,27.051-1.089,32.808l-18.714-.081c0,0,3.776-13.522-1.737-26.014c0,0,3.953,22.977-2.924,24.905c0,0-8.658-5.626-16.927-3.382c0,0-4.388-12.387-.465-19.069c0,0-6.586.052-7.207,11.409c0,0-7.929-2.536-11.06-1.823l-4.32-5.888Z" fill="#017a01"/><path d="M409.537,343.554l-18.171,3.775l13.906-7.869c-4.493-11.278-16.492-13.972-16.492-13.972-1.211,10.406-8.346,17.457-8.346,17.457s5.41-12.809,1.541-19.887-21.248-7.716-21.248-7.716l3.962,26.123c-3.998-4.516-6.922-21.578-6.922-21.578-7.582-2.615-17.637,2.93-17.637,2.93c10.359,12.836,9.019,25.804,9.019,25.804L335.203,322.13c-6.376-2.166-17.895,8.054-17.895,8.054c11.498,6.788,12.877,20.403,12.877,20.403-8.885-5.032-16.217-17.472-16.217-17.472-5.566,1.267-14.617,14.181-14.617,14.181l13.514,10.671-15.916-6.868c-4.118,2.746-10.814,14.763-10.814,14.763l9.54,4.702-11.48,2.614c-.768,4.516,6.199,7.633,6.199,7.633s16.108-19.067,57.381-25.852s64.235-2.52,78.54,11.547c-.295-13.68-16.778-22.952-16.778-22.952Z" fill="#017a01"/><path d="M290.393,380.81c0,0-6.967-3.117-6.199-7.633l11.48-2.614-9.54-4.702c0,0,6.697-12.016,10.814-14.763l15.916,6.868-13.514-10.671c0,0,9.051-12.914,14.617-14.181c0,0,7.333,12.44,16.217,17.472c0,0-1.378-13.615-12.877-20.403c0,0,11.519-10.22,17.895-8.054l13.946,26.491c0,0,1.34-12.967-9.019-25.804c0,0,10.056-5.546,17.637-2.93c0,0,2.924,17.061,6.922,21.578l-3.962-26.123c0,0,17.379.638,21.248,7.716s-1.541,19.887-1.541,19.887s7.135-7.051,8.346-17.457c0,0,11.999,2.695,16.492,13.972l-13.906,7.869l18.171-3.775c0,0,16.483,9.271,16.777,22.952c0,0-6.31,4.331-13.082,5.149s-10.41,2.486-10.41,2.486l-14.893-18.07l11.955,21.156c0,0-6.973,7.738-15.217,8.529c0,0-7.909-19.544-15.199-24.035c0,0,11.783,15.768,10.734,26.86c0,0-8.511,1.214-15.112,7.42c0,0-4.059-23.677-10.253-28.055c0,0,6.717,27.051-1.089,32.808l-18.714-.081c0,0,3.776-13.522-1.737-26.014c0,0,3.953,22.977-2.924,24.905c0,0-8.658-5.626-16.927-3.382c0,0-4.388-12.387-.465-19.069c0,0-6.586.052-7.207,11.409c0,0-7.929-2.536-11.06-1.823l-4.32-5.888Z" fill="#017a01"/><g><path d="M290.393,380.81c0,0,16.109-19.067,57.381-25.852c41.273-6.785,64.235-2.52,78.54,11.547" fill="#017a01"/><path d="M290.393,380.81c8.095-9.285,19.281-15.344,30.55-19.981c17.185-6.674,35.738-9.307,54.073-10.255c18.057-.612,38.461,1.903,51.298,15.932-4.595-4.023-9.868-7.142-15.519-9.199-17.207-6.086-35.885-4.438-53.731-2.252-23.167,2.87-49.1,9.682-66.671,25.755v0Z" fill="#ffa196"/></g></g><g><path d="M210.705,393.17c0,0,7.407-1.841,7.447-6.421l-10.84-4.596l10.219-2.947c0,0-4.475-13.008-8.044-16.437l-16.877,3.956l15.182-8.123c0,0-6.634-14.306-11.89-16.535c0,0-9.41,10.953-19.042,14.341c0,0,3.755-13.159,16.27-17.815c0,0-9.538-12.09-16.196-11.081l-18.395,23.619c0,0,.965-13.001,13.424-23.811c0,0-8.921-7.23-16.845-5.992c0,0-5.885,16.279-10.616,20.021l8.502-25.016c0,0-17.22-2.434-22.275,3.852s-1.987,19.847-1.987,19.847-5.781-8.198-5.14-18.654c0,0-12.286.539-18.696,10.848l12.302,10.196-17.222-6.918c0,0-17.858,6.222-20.558,19.637c0,0,5.448,5.375,11.97,7.373c6.522,1.999,9.81,4.282,9.81,4.282l17.843-15.164-15.495,18.718c0,0,5.5,8.845,13.476,11.077c0,0,11.228-17.845,19.196-20.981c0,0-14.377,13.445-15.298,24.549c0,0,8.164,2.695,13.568,9.967c0,0,8.167-22.591,15.036-25.81c0,0-11.378,25.444-4.708,32.487l18.435,3.218c0,0-1.334-13.975,6.293-25.301c0,0-7.939,21.922-1.51,25.03c0,0,9.514-4.013,17.258-.347c0,0,6.502-11.42,3.818-18.688c0,0,6.474,1.212,5.084,12.5c0,0,8.252-1.099,11.209.154l5.292-5.035Z" fill="#017a01"/><path d="M99.988,335.505l17.222,6.918-12.302-10.196c6.409-10.31,18.695-10.848,18.695-10.848-.641,10.456,5.14,18.654,5.14,18.654s-3.069-13.561,1.987-19.847c5.055-6.286,22.275-3.852,22.275-3.852l-8.502,25.016c4.731-3.741,10.616-20.021,10.616-20.021c7.924-1.239,16.845,5.992,16.845,5.992-12.458,10.81-13.424,23.811-13.424,23.811l18.395-23.619c6.658-1.009,16.196,11.081,16.196,11.081-12.515,4.656-16.27,17.815-16.27,17.815c9.632-3.388,19.042-14.341,19.042-14.341c5.256,2.228,11.89,16.535,11.89,16.535l-15.182,8.123l16.877-3.956c3.569,3.429,8.044,16.437,8.044,16.437l-10.219,2.947l10.84,4.595c-.04,4.581-7.447,6.422-7.447,6.422s-12.497-21.607-51.929-35.557-62.786-13.797-79.346-2.471c2.698-13.416,20.557-19.638,20.557-19.638Z" fill="#017a01"/><path d="M210.705,393.17c0,0,7.407-1.841,7.447-6.421l-10.84-4.596l10.219-2.947c0,0-4.475-13.008-8.044-16.437l-16.877,3.956l15.182-8.123c0,0-6.634-14.306-11.89-16.535c0,0-9.41,10.953-19.042,14.341c0,0,3.755-13.159,16.27-17.815c0,0-9.538-12.09-16.196-11.081l-18.395,23.619c0,0,.965-13.001,13.424-23.811c0,0-8.921-7.23-16.845-5.992c0,0-5.885,16.279-10.616,20.021l8.502-25.016c0,0-17.22-2.434-22.275,3.852s-1.987,19.847-1.987,19.847-5.781-8.198-5.14-18.654c0,0-12.286.539-18.696,10.848l12.302,10.196-17.222-6.918c0,0-17.858,6.222-20.558,19.637c0,0,5.448,5.375,11.97,7.373c6.522,1.999,9.81,4.282,9.81,4.282l17.843-15.164-15.495,18.718c0,0,5.5,8.845,13.476,11.077c0,0,11.228-17.845,19.196-20.981c0,0-14.377,13.445-15.298,24.549c0,0,8.164,2.695,13.568,9.967c0,0,8.167-22.591,15.036-25.81c0,0-11.378,25.444-4.708,32.487l18.435,3.218c0,0-1.334-13.975,6.293-25.301c0,0-7.939,21.922-1.51,25.03c0,0,9.514-4.013,17.258-.347c0,0,6.502-11.42,3.818-18.688c0,0,6.474,1.212,5.084,12.5c0,0,8.252-1.099,11.209.154l5.292-5.035Z" fill="#017a01"/><g><path d="M210.705,393.17c0,0-12.497-21.607-51.929-35.557s-62.786-13.797-79.346-2.471" fill="#017a01"/><path d="M210.705,393.17c-14.478-18.927-38.775-30.183-61.091-37.099-17.182-5.296-35.279-10.208-53.288-7.25-5.925,1.029-11.665,3.17-16.897,6.321c15.116-11.548,35.633-10.429,53.303-6.645c17.88,4.163,35.681,10.024,51.42,19.621c10.277,6.551,20.22,14.486,26.553,25.052v0Z" fill="#ffa196"/></g></g></g><g><g><path d="M310.991,230.736c-1.248-5.559-7.864-7.781-10.462-12.796-3.119-6.02.563-13.342,4.406-18.88s8.198-12.08,6.31-18.644c-2.327-8.089-10.599-10.949-10.359-20.105.112-4.261,1.433-8.376,2.108-12.581c1.688-10.506-.735-21.39-5.198-30.984-4.539-9.758-9.615-19.767-18.002-26.574-7.855-6.376-17.791-9.701-27.714-10.022-.235-.008-.469-.001-.704,0v0c-.161-.001-.322.002-.482,0-.161.002-.322-.001-.482,0v0c-.235-.001-.469-.008-.704,0-9.923.321-19.859,3.647-27.714,10.022-8.387,6.807-13.464,16.816-18.002,26.574-4.463,9.594-6.885,20.478-5.197,30.984.675,4.204,1.996,8.32,2.108,12.581.24,9.156-8.032,12.016-10.359,20.105-1.888,6.563,2.467,13.106,6.31,18.644s7.525,12.859,4.406,18.88c-2.598,5.014-9.214,7.237-10.462,12.796-1.232,5.487,3.506,10.24,5.502,15.472c2.084,5.46-.312,12.284-1.938,17.595c8.047.989,16.562.478,24.684.676c8.271.201,16.543.402,24.814.604.067.002.134.003.201.005c2.118.052,4.235.103,6.353.155v.023c.161-.004.321-.008.482-.012.161.004.322.008.482.012v-.023c2.118-.052,4.235-.103,6.353-.155.067-.002.134-.003.201-.005c8.271-.201,16.543-.402,24.814-.604c8.121-.198,16.637.313,24.684-.676-1.626-5.311-4.022-12.135-1.938-17.595c1.993-5.232,6.731-9.985,5.499-15.472Z" fill="#40273f"/><path d="M300.529,217.941c-1.91-3.686-1.265-7.858.4-11.812-1.023,1.329-1.818,2.9-2.504,4.352-1.154,2.442-2.159,5.09-2.613,7.783-.668,3.961.264,6.505,3.466,8.832c1.877,1.364,3.922,2.617,4.744,4.972.883,2.53.106,5.212-.583,7.687-1.002,3.597-1.703,6.789-.541,10.453.489,1.542,1.197,2.94,2.066,4.202-.439-2.836-.443-5.666.525-8.202c1.996-5.232,6.734-9.985,5.502-15.472-1.248-5.558-7.864-7.781-10.462-12.795Z" fill="#634b62"/></g><path d="M225.478,118.955c4.56-2.714,8.955-5.869,12.805-9.593c5.215-5.043,9.068-11.251,12.993-17.362.2-.312.674-.274.78.106c2.641,9.497,6.253,18.79,13.16,25.852c4.121,4.213,8.855,6.979,14.268,9.028c4.823,1.825,9.753,3.305,14.306,5.814.165.091.245.317.196.499-3.314,12.239-3.919,26.539,2.331,37.928c1.534,2.795,3.495,5.308,5.723,7.541c2.476,2.482,5.662,4.185,7.761,7.071.477.655.887,1.335,1.247,2.033.724-2.446.917-4.949.196-7.455-2.327-8.089-10.599-10.949-10.359-20.105.112-4.261,1.433-8.376,2.108-12.581c1.688-10.506-.735-21.39-5.198-30.984-4.539-9.758-9.615-19.767-18.002-26.574-7.855-6.376-17.791-9.701-27.714-10.022-.235-.008-.469-.001-.704,0v0c-.161-.001-.322.002-.482,0-.161.002-.322-.001-.482,0v0c-.235-.001-.469-.008-.704,0-9.923.321-19.859,3.647-27.714,10.022-8.387,6.807-13.464,16.816-18.002,26.574-1.524,3.276-2.802,6.704-3.767,10.215c8.745.541,18.069-3.73,25.254-8.007Z" fill="#634b62"/><g><g><path d="M174.96,347.013v0c9.692,6.197,22.699,1.419,25.919-9.522l15.861-53.889-2.383-40.936c-.314-5.39-4.998-9.508-10.462-9.199v0c-4.156.235-7.721,3.008-8.921,6.94l-27.116,87.371c-2.252,7.258.647,15.107,7.102,19.235Z" fill="#7d99ff"/><path d="M203.58,233.498c-4.02.355-7.436,3.078-8.606,6.91l-27.116,87.371c-1.529,4.925-.678,10.121,2.041,14.244L203.58,233.498Z" fill="#fff"/><polygon points="204.045,257.317 195.047,341.796 213.913,284.579 213.913,243.576" fill="#ccade0"/></g><g><path d="M325.039,347.013v0c-9.691,6.197-22.699,1.419-25.919-9.522l-15.861-53.889l2.383-40.936c.314-5.39,4.998-9.508,10.462-9.199v0c4.156.235,7.721,3.008,8.921,6.94l27.116,87.371c2.253,7.258-.646,15.107-7.102,19.235Z" fill="#7d99ff"/><path d="M296.42,233.498c4.02.355,7.436,3.078,8.606,6.91l27.116,87.371c1.529,4.925.678,10.121-2.041,14.244L296.42,233.498Z" fill="#fff"/><polygon points="295.955,257.317 304.953,341.796 286.087,284.579 286.087,243.576" fill="#ccade0"/></g></g><g><path d="M301.454,428.841l-5.515-53.51h-91.784l-4.836,43.121c0,0,17.998,6.292,41.557,9.365c27.231,3.552,60.578,1.024,60.578,1.024Z" fill="#40273f"/><path d="M302.295,241.179c.315-3.243-1.505-6.323-4.522-7.651L272.84,222.549v0h-45.683v0l-26.454,11.662c-2.09.92-3.351,3.054-3.133,5.301l7.53,77.532-9.736,79.521c0,0,4.585,17.695,55.082,17.695c48.693,0,54.234-17.695,54.234-17.695l-9.788-79.14l7.403-76.246Z" fill="#7d99ff"/><path d="M299.331,353.311l-3.627-29.322L260.1,305.754l.125-.93-8.017-30.522c-.342-1.301-2.067-1.228-2.492-.183-.425-1.045-2.15-1.118-2.492.183l-8.017,30.522.125.93-34.994,17.506-3.614,29.52l41.337-28.426v0l2.89-1.77c1.889-1.156,3.072-3.161,3.16-5.352l1.604-40.078l1.604,40.078c.088,2.191,1.271,4.196,3.16,5.352l2.891,1.77v0l41.961,28.957Z" fill="#ccade0"/><g><path d="M227.157,222.549v0l-26.454,11.662c-2.09.92-3.351,3.054-3.132,5.301l.979,10.162l3.065-9.77l41.618-17.354h-16.076Z" fill="#fff"/><path d="M297.773,233.528L272.84,222.549v0h-15.8l41.348,17.225l3.186,8.833.721-7.428c.315-3.243-1.505-6.323-4.522-7.651Z" fill="#fff"/></g></g><g><path d="M229.958,193.7v29.368c0,10.93,8.983,19.791,20.065,19.791v0c11.081,0,20.065-8.861,20.065-19.791v-29.368h-40.13Z" fill="#ffb2a1"/><path d="M229.957,214.397c4.709,2.404,9.903,3.771,15.228,3.843l10.592.144c4.964.067,9.823-1.012,14.31-2.987v-24.55h-40.13v23.55Z" fill="#cc9a8f"/></g><g><g><g><g><g><path d="M233.89,309.729c-.597.019-1.103-.467-1.116-1.088-.003-.621.479-1.125,1.078-1.126s1.087.486,1.09,1.088c.012.603-.452,1.107-1.052,1.126Z" fill="#4c304b"/><path d="M233.847,306.475c-.002,1.432.017,2.863.077,4.294" fill="none" stroke="#4c304b" stroke-width="0.3426" stroke-miterlimit="10"/></g><g><path d="M234.126,314.017c-.592.049-1.134-.411-1.165-1.031-.036-.619.419-1.147,1.017-1.178s1.111.431,1.147,1.032c.029.602-.398,1.127-.999,1.177Z" fill="#4c304b"/><path d="M233.924,310.769c.066,1.43.157,2.859.291,4.285" fill="none" stroke="#4c304b" stroke-width="0.3426" stroke-miterlimit="10"/></g><g><path d="M234.574,318.288c-.594.079-1.147-.355-1.211-.972-.069-.617.358-1.166.953-1.227s1.133.375,1.2.974c.062.599-.35,1.146-.942,1.225Z" fill="#4c304b"/><path d="M234.214,315.054c.134,1.425.295,2.848.502,4.265" fill="none" stroke="#4c304b" stroke-width="0.3426" stroke-miterlimit="10"/></g><g><path d="M235.231,322.532c-.593.109-1.153-.3-1.254-.912s.296-1.182.888-1.272s1.152.318,1.25.913c.099.594-.299,1.163-.884,1.271Z" fill="#4c304b"/><path d="M234.717,319.318c.201,1.417.432,2.831.712,4.235" fill="none" stroke="#4c304b" stroke-width="0.3426" stroke-miterlimit="10"/></g><g><path d="M236.1,326.737c-.583.137-1.164-.243-1.297-.849s.233-1.194.822-1.314c.584-.119,1.167.261,1.296.849.13.59-.238,1.177-.821,1.314Z" fill="#4c304b"/><path d="M235.428,323.553c.263,1.407.576,2.805.919,4.195" fill="none" stroke="#4c304b" stroke-width="0.3426" stroke-miterlimit="10"/></g><g><path d="M237.179,330.894c-.575.165-1.176-.185-1.341-.783-.17-.597.177-1.204.76-1.353.577-.147,1.167.206,1.332.785.16.581-.176,1.186-.751,1.351Z" fill="#4c304b"/><path d="M236.347,327.748c.335,1.392.716,2.773,1.124,4.145" fill="none" stroke="#4c304b" stroke-width="0.3426" stroke-miterlimit="10"/></g><g><path d="M238.46,334.993c-.566.194-1.185-.126-1.381-.715-.202-.587.127-1.215.696-1.391.575-.178,1.169.15,1.366.72.19.572-.115,1.192-.681,1.386Z" fill="#4c304b"/><path d="M237.471,331.893c.406,1.373.855,2.733,1.327,4.084" fill="none" stroke="#4c304b" stroke-width="0.3426" stroke-miterlimit="10"/></g><g><path d="M239.942,339.024c-.556.222-1.191-.067-1.418-.644-.223-.579.069-1.221.63-1.425.565-.206,1.18.09,1.396.652.22.561-.052,1.195-.608,1.417Z" fill="#4c304b"/><path d="M238.798,335.977c.476,1.35.992,2.686,1.527,4.014" fill="none" stroke="#4c304b" stroke-width="0.3426" stroke-miterlimit="10"/></g><g><path d="M241.619,342.977c-.541.255-1.199-.003-1.447-.573-.243-.571.008-1.223.56-1.455.552-.233,1.19.029,1.425.583.239.55.003,1.189-.538,1.445Z" fill="#4c304b"/><path d="M240.325,339.991c.562,1.316,1.097,2.646,1.747,3.923" fill="none" stroke="#4c304b" stroke-width="0.3426" stroke-miterlimit="10"/></g><g><path d="M243.788,346.672c-.462.379-1.187.258-1.553-.3-.366-.554-.194-1.253.328-1.542.525-.292,1.172-.118,1.481.347.305.467.209,1.116-.256,1.495Z" fill="#4c304b"/><path d="M242.072,343.914c.646,1.275,1.406,2.507,2.397,3.545" fill="none" stroke="#4c304b" stroke-width="0.3426" stroke-miterlimit="10"/></g><g><path d="M247.117,349.305c-.196.555-.933.816-1.551.432-.612-.382-.736-1.115-.337-1.57.389-.445,1.037-.548,1.461-.284.422.268.633.849.427,1.422Z" fill="#4c304b"/><path d="M244.468,347.459c.982,1.033,2.233,1.857,3.644,2.143" fill="none" stroke="#4c304b" stroke-width="0.3426" stroke-miterlimit="10"/></g><g><path d="M251.332,349.469c.169.575-.241,1.198-.953,1.286-.713.092-1.281-.424-1.236-1.023.041-.596.472-1.061.972-1.129.502-.059,1.051.292,1.217.866Z" fill="#4c304b"/><path d="M248.112,349.601c1.406.306,2.883.061,4.207-.46" fill="none" stroke="#4c304b" stroke-width="0.3426" stroke-miterlimit="10"/></g><g><path d="M255.168,347.585c.344.48.201,1.191-.37,1.529-.563.351-1.275.141-1.527-.391-.262-.549-.066-1.168.408-1.466.482-.284,1.137-.165,1.489.328Z" fill="#4c304b"/><path d="M252.319,349.141c1.33-.526,2.572-1.28,3.669-2.196" fill="none" stroke="#4c304b" stroke-width="0.3426" stroke-miterlimit="10"/></g><g><path d="M258.171,344.543c.485.336.59,1.06.156,1.57-.429.513-1.154.557-1.574.127-.417-.426-.446-1.09-.091-1.515.361-.42,1.011-.528,1.509-.182Z" fill="#4c304b"/><path d="M255.988,346.945c1.096-.923,2.004-2.055,2.757-3.27" fill="none" stroke="#4c304b" stroke-width="0.3426" stroke-miterlimit="10"/></g><g><path d="M260.232,340.784c.549.232.799.899.518,1.478-.281.581-.957.808-1.482.514-.52-.291-.723-.936-.471-1.456.253-.519.881-.769,1.435-.536Z" fill="#4c304b"/><path d="M258.745,343.676c.757-1.216,1.36-2.522,1.882-3.854" fill="none" stroke="#4c304b" stroke-width="0.3426" stroke-miterlimit="10"/></g><g><path d="M261.689,336.746c.574.177.885.802.691,1.395-.198.595-.826.911-1.39.706-.561-.204-.856-.822-.668-1.387.187-.569.797-.889,1.367-.714Z" fill="#4c304b"/><path d="M260.627,339.822c.518-1.335.959-2.698,1.364-4.071" fill="none" stroke="#4c304b" stroke-width="0.3426" stroke-miterlimit="10"/></g><g><path d="M262.828,332.606c.584.138.936.74.783,1.345-.156.604-.758.961-1.336.799-.575-.161-.914-.76-.764-1.34.148-.58.736-.941,1.317-.804Z" fill="#4c304b"/><path d="M261.991,335.751c.403-1.374.763-2.76,1.071-4.158" fill="none" stroke="#4c304b" stroke-width="0.3426" stroke-miterlimit="10"/></g><g><path d="M263.685,328.398c.589.097.986.676.871,1.289-.113.613-.693,1.009-1.278.888-.587-.122-.962-.696-.853-1.285.111-.589.668-.99,1.26-.892Z" fill="#4c304b"/><path d="M263.061,331.592c.309-1.398.574-2.806.788-4.221" fill="none" stroke="#4c304b" stroke-width="0.3426" stroke-miterlimit="10"/></g><g><path d="M264.255,324.142c.594.057,1.033.608.957,1.227-.069.62-.625,1.054-1.215.972-.596-.082-1.005-.629-.938-1.225.073-.594.598-1.032,1.196-.974Z" fill="#4c304b"/><path d="M263.85,327.371c.217-1.415.374-2.839.508-4.264" fill="none" stroke="#4c304b" stroke-width="0.3426" stroke-miterlimit="10"/></g><g><path d="M264.664,319.867c.596.049,1.039.591.98,1.203-.057.613-.589,1.059-1.185,1.001s-1.03-.598-.974-1.203c.058-.604.581-1.051,1.179-1.001Z" fill="#4c304b"/><path d="M264.358,323.107c.14-1.425.282-2.85.39-4.277" fill="none" stroke="#4c304b" stroke-width="0.3426" stroke-miterlimit="10"/></g><g><path d="M264.907,315.579c.596.008,1.079.526,1.049,1.151-.023.626-.544,1.098-1.139,1.061-.6-.037-1.049-.554-1.027-1.15.029-.596.515-1.069,1.117-1.062Z" fill="#4c304b"/><path d="M264.748,318.83c.106-1.428.173-2.859.167-4.29" fill="none" stroke="#4c304b" stroke-width="0.3426" stroke-miterlimit="10"/></g><g><path d="M264.741,311.291c.59-.067,1.139.394,1.176,1.029.049.635-.431,1.162-1.024,1.179-.603.018-1.092-.448-1.139-1.032-.033-.586.387-1.109.987-1.176Z" fill="#4c304b"/><path d="M264.915,314.539c-.012-1.431-.101-2.863-.299-4.281" fill="none" stroke="#4c304b" stroke-width="0.3426" stroke-miterlimit="10"/></g></g></g></g><g><path d="M242.368,290.32l-65.175,34.678c-7.322,3.896-9.472,13.273-4.561,19.897v0c4.472,6.032,13.056,7.347,19.172,2.935l50.563-37.458v-20.052Z" fill="#ffb2a1"/><path d="M226.89,296.624l-49.696,28.374c-7.322,3.896-9.472,13.272-4.561,19.897v0c4.472,6.033,13.056,7.347,19.172,2.936l37.024-22.199-1.939-29.008Z" fill="#7d99ff"/><path d="M173.324,338.872l54.317-31.012-.751-11.236-49.696,28.374c-5.886,3.132-8.42,9.803-6.641,15.741.843-.696,1.761-1.33,2.771-1.867Z" fill="#fff"/><polygon points="221.564,329.987 228.829,325.631 226.89,296.624 221.564,299.664" fill="#fff"/><path d="M248.418,303.249l1.703-42.552c.062-1.555-2.196-1.883-2.591-.377l-8.017,30.522l2.638,19.662l3.107-1.903c1.889-1.156,3.073-3.161,3.16-5.352Z" fill="#ffb2a1"/></g><g><path d="M257.677,290.32l65.175,34.678c7.322,3.896,9.472,13.273,4.561,19.897v0c-4.472,6.032-13.056,7.347-19.172,2.935l-50.563-37.458v-20.052Z" fill="#ffb2a1"/><path d="M273.155,296.624l49.696,28.374c7.322,3.896,9.472,13.272,4.561,19.897v0c-4.472,6.033-13.056,7.347-19.172,2.936l-37.024-22.199l1.939-29.008Z" fill="#7d99ff"/><path d="M326.721,338.872L272.404,307.86l.751-11.236l49.696,28.374c5.886,3.132,8.42,9.803,6.641,15.741-.843-.696-1.761-1.33-2.771-1.867Z" fill="#fff"/><polygon points="278.481,329.987 271.216,325.631 273.155,296.624 278.481,299.664" fill="#fff"/><path d="M251.626,303.249l-1.703-42.552c-.062-1.555,2.196-1.883,2.591-.377l8.017,30.522-2.638,19.662-3.107-1.903c-1.888-1.156-3.072-3.161-3.16-5.352Z" fill="#ffb2a1"/></g><g><g><g><g><path d="M238.007,294.369c-.622-.134-1.022-.797-.784-1.495.108-.343.363-.612.662-.739.29-.128.606-.112.892.046.277.153.48.404.596.659.109.25.138.516.053.788-.177.516-.784.88-1.419.741Z" fill="#4c304b"/><path d="M239.428,291.306c-.549.525-.863,1.238-1.102,1.944-.247.711-.401,1.45-.521,2.192" fill="none" stroke="#4c304b" stroke-width="0.3682" stroke-miterlimit="10"/></g><g><path d="M237.499,298.847c-.642-.019-1.154-.572-1.103-1.242.035-.669.632-1.156,1.264-1.078.646.078,1.091.623,1.06,1.239-.047.612-.576,1.1-1.221,1.081Z" fill="#4c304b"/><path d="M237.805,295.443c-.233,1.487-.315,2.993-.328,4.497" fill="none" stroke="#4c304b" stroke-width="0.3682" stroke-miterlimit="10"/></g><g><path d="M237.571,303.358c-.646.042-1.19-.458-1.221-1.116-.028-.659.491-1.201,1.132-1.209.646-.008,1.17.492,1.196,1.117.029.626-.469,1.167-1.107,1.208Z" fill="#4c304b"/><path d="M237.476,299.94c-.009,1.504.051,3.009.171,4.509" fill="none" stroke="#4c304b" stroke-width="0.3682" stroke-miterlimit="10"/></g><g><path d="M238.008,307.849c-.637.086-1.23-.371-1.299-1.023-.078-.651.393-1.229,1.035-1.289.639-.059,1.205.4,1.28,1.025.066.626-.378,1.201-1.016,1.287Z" fill="#4c304b"/><path d="M237.647,304.448c.121,1.5.294,2.995.51,4.484" fill="none" stroke="#4c304b" stroke-width="0.3682" stroke-miterlimit="10"/></g><g><path d="M238.74,312.302c-.627.126-1.254-.29-1.363-.936-.114-.645.309-1.251.948-1.353.632-.101,1.236.319,1.345.94.105.62-.296,1.221-.93,1.349Z" fill="#4c304b"/><path d="M238.157,308.932c.217,1.489.491,2.969.802,4.441" fill="none" stroke="#4c304b" stroke-width="0.3682" stroke-miterlimit="10"/></g><g><path d="M239.762,316.697c-.618.169-1.267-.206-1.424-.843-.155-.638.229-1.27.856-1.413s1.256.237,1.404.848c.151.61-.213,1.237-.836,1.408Z" fill="#4c304b"/><path d="M238.959,313.373c.309,1.473.682,2.931,1.098,4.377" fill="none" stroke="#4c304b" stroke-width="0.3682" stroke-miterlimit="10"/></g><g><path d="M241.112,321.002c-.604.223-1.271-.103-1.49-.726-.202-.628.134-1.29.749-1.479s1.269.141,1.46.736c.206.589-.116,1.246-.719,1.469Z" fill="#4c304b"/><path d="M240.057,317.749c.416,1.446.89,2.875,1.443,4.275" fill="none" stroke="#4c304b" stroke-width="0.3682" stroke-miterlimit="10"/></g><g><path d="M242.892,325.146c-.574.298-1.288.052-1.564-.557-.292-.603-.002-1.307.586-1.553.599-.251,1.258.02,1.528.574.254.561.018,1.241-.55,1.536Z" fill="#4c304b"/><path d="M241.5,322.024c.551,1.399,1.172,2.773,1.906,4.087" fill="none" stroke="#4c304b" stroke-width="0.3682" stroke-miterlimit="10"/></g><g><path d="M245.406,328.861c-.399.491-1.237.511-1.727-.147-.447-.602-.252-1.32.282-1.661.548-.352,1.263-.161,1.584.265.273.383.274,1.039-.139,1.543Z" fill="#4c304b"/><path d="M243.405,326.111c.371.654.759,1.301,1.206,1.905.438.618,1.05,1.078,1.67,1.498" fill="none" stroke="#4c304b" stroke-width="0.3682" stroke-miterlimit="10"/></g><g><path d="M249.489,330.634c-.075.621-.739,1.095-1.449.878-.72-.178-1.05-.937-.784-1.505.277-.599.878-.863,1.41-.739.518.166.906.711.823,1.366Z" fill="#4c304b"/><path d="M246.281,329.513c1.297.765,2.794,1.166,4.295,1.22" fill="none" stroke="#4c304b" stroke-width="0.3682" stroke-miterlimit="10"/></g><g><path d="M253.922,330.15c.254.57-.101,1.334-.839,1.482-.728.197-1.372-.32-1.414-.941-.051-.662.364-1.177.877-1.326.528-.097,1.111.177,1.376.785Z" fill="#4c304b"/><path d="M250.577,330.733c1.501.028,3.024-.302,4.327-1.061" fill="none" stroke="#4c304b" stroke-width="0.3682" stroke-miterlimit="10"/></g><g><path d="M257.24,327.234c.554.317.769,1.088.259,1.698-.482.615-1.324.592-1.708.103-.416-.518-.404-1.17-.1-1.572.327-.372.989-.549,1.549-.229Z" fill="#4c304b"/><path d="M254.903,329.672c.633-.402,1.23-.878,1.691-1.474.497-.57.803-1.27,1.162-1.927" fill="none" stroke="#4c304b" stroke-width="0.3682" stroke-miterlimit="10"/></g><g><path d="M258.966,323.075c.615.189.939.856.723,1.49-.201.637-.914.948-1.507.699-.594-.249-.874-.887-.689-1.478.198-.581.858-.9,1.473-.711Z" fill="#4c304b"/><path d="M257.756,326.271c.61-1.375,1.12-2.794,1.515-4.246" fill="none" stroke="#4c304b" stroke-width="0.3682" stroke-miterlimit="10"/></g><g><path d="M260.106,318.71c.629.136,1.017.764.867,1.404-.148.64-.778,1.025-1.407.859-.615-.163-1.001-.79-.859-1.402.144-.612.77-.997,1.399-.861Z" fill="#4c304b"/><path d="M259.271,322.025c.424-1.443.756-2.913,1.056-4.386" fill="none" stroke="#4c304b" stroke-width="0.3682" stroke-miterlimit="10"/></g><g><path d="M260.929,314.273c.636.099,1.067.701.962,1.346-.097.646-.727,1.067-1.355.947-.636-.121-1.035-.717-.942-1.342.102-.624.699-1.05,1.335-.951Z" fill="#4c304b"/><path d="M260.326,317.639c.308-1.473.542-2.959.774-4.446" fill="none" stroke="#4c304b" stroke-width="0.3682" stroke-miterlimit="10"/></g><g><path d="M261.516,309.798c.635.065,1.117.647,1.032,1.293-.084.647-.669,1.102-1.307,1.017s-1.089-.663-1.007-1.29c.083-.627.637-1.086,1.282-1.02Z" fill="#4c304b"/><path d="M261.1,313.193c.2-1.491.393-2.983.523-4.482" fill="none" stroke="#4c304b" stroke-width="0.3682" stroke-miterlimit="10"/></g><g><path d="M261.877,305.3c.643.032,1.129.586,1.085,1.238-.043.652-.598,1.137-1.24,1.084-.641-.053-1.127-.607-1.085-1.238.043-.63.598-1.116,1.24-1.084Z" fill="#4c304b"/><path d="M261.623,308.711c.141-1.497.246-2.999.297-4.503" fill="none" stroke="#4c304b" stroke-width="0.3682" stroke-miterlimit="10"/></g><g><path d="M261.97,300.789c.643-.009,1.168.516,1.171,1.172.012.657-.55,1.171-1.186,1.154-.651-.017-1.131-.543-1.144-1.172-.003-.628.515-1.145,1.159-1.154Z" fill="#4c304b"/><path d="M261.92,304.208c.071-1.503.059-3.008.042-4.512" fill="none" stroke="#4c304b" stroke-width="0.3682" stroke-miterlimit="10"/></g><g><path d="M261.741,296.284c.635-.067,1.226.416,1.27,1.076.033.659-.461,1.216-1.104,1.244-.643.029-1.189-.455-1.22-1.08-.042-.622.409-1.173,1.054-1.24Z" fill="#4c304b"/><path d="M261.961,299.696l-.112-2.254c-.054-.75-.148-1.497-.22-2.246" fill="none" stroke="#4c304b" stroke-width="0.3682" stroke-miterlimit="10"/></g><g><path d="M261,291.838c.61-.168,1.29.234,1.413.899.114.663-.31,1.28-.946,1.378s-1.235-.312-1.338-.916c-.109-.597.24-1.188.871-1.361Z" fill="#4c304b"/><path d="M261.629,295.196c-.083-.747-.241-1.485-.358-2.227-.145-.738-.368-1.458-.548-2.188" fill="none" stroke="#4c304b" stroke-width="0.3682" stroke-miterlimit="10"/></g></g></g></g><g><g><g><g><g><path d="M250.039,292.291c-.598-.006-1.089-.422-1.091-1.066c0-.343.176-.745.456-.951.277-.214.609-.209.855-.043.249.167.442.367.603.516.157.155.258.277.254.513.002.514-.478,1.037-1.077,1.031Z" fill="#4c304b"/><path d="M251.057,289.73c-.347-.002-.649.238-.814.529-.169.298-.206.647-.211.984l.015,2.034" fill="none" stroke="#4c304b" stroke-width="0.3426" stroke-miterlimit="10"/></g><g><path d="M250.072,296.352c-.599.005-1.088-.461-1.092-1.04-.005-.579.477-1.052,1.075-1.057.599-.005,1.088.461,1.093,1.04.004.579-.477,1.052-1.076,1.057Z" fill="#4c304b"/><line x1="250.047" y1="293.27" x2="250.08" y2="297.337" fill="none" stroke="#4c304b" stroke-width="0.3426" stroke-miterlimit="10"/></g><g><path d="M250.105,300.419c-.599.005-1.088-.461-1.092-1.04-.005-.579.477-1.052,1.075-1.057.599-.005,1.088.461,1.092,1.04.006.579-.476,1.053-1.075,1.057Z" fill="#4c304b"/><line x1="250.08" y1="297.337" x2="250.113" y2="301.405" fill="none" stroke="#4c304b" stroke-width="0.3426" stroke-miterlimit="10"/></g><g><path d="M250.139,304.487c-.599.005-1.088-.461-1.093-1.04s.477-1.052,1.076-1.057s1.088.461,1.092,1.04-.477,1.052-1.075,1.057Z" fill="#4c304b"/><line x1="250.113" y1="301.405" x2="250.147" y2="305.472" fill="none" stroke="#4c304b" stroke-width="0.3426" stroke-miterlimit="10"/></g><g><path d="M250.172,308.554c-.599.005-1.088-.461-1.092-1.04-.005-.579.477-1.052,1.075-1.057.599-.005,1.088.461,1.092,1.04.005.579-.477,1.052-1.075,1.057Z" fill="#4c304b"/><line x1="250.147" y1="305.472" x2="250.18" y2="309.539" fill="none" stroke="#4c304b" stroke-width="0.3426" stroke-miterlimit="10"/></g></g></g></g><rect width="2.677" height="16.421" rx="0" ry="0" transform="translate(248.77 308.992)" fill="#4c304b"/><rect width="2.64" height="9.886" rx="0" ry="0" transform="matrix(0 1-1 0 255.051 312.1386)" fill="#4c304b"/></g></g><g><g><path d="M293.92,151.088l-2.882-.125-1.203,26.188c5.473.25,10.115-3.924,10.369-9.322l.331-7.06c.208-4.42-2.592-8.285-6.615-9.681Z" fill="#ff8e75"/></g><g><path d="M208.772,151.088l2.882-.125l1.203,26.188c-5.473.25-10.115-3.924-10.369-9.322l-.331-7.06c-.207-4.42,2.592-8.285,6.615-9.681Z" fill="#ff8e75"/></g><path d="M288.077,139.171c-3.841-.018-9.552-.484-13.208-1.577-4.89-1.461-9.492-4.141-13.251-8.243-4.574-4.991-7.79-11.917-10.449-19.174-.514-1.402-1.003-2.833-1.483-4.28-.461,1.447-.931,2.879-1.424,4.28-2.552,7.256-5.643,14.183-10.05,19.174-3.621,4.101-8.061,6.781-12.78,8.243-3.202.991-8.051,1.459-11.407,1.552-.093,4.96-.104,17.778-.095,20.625.022,7.193.538,14.375,1.541,21.5v0c2.244,15.947,15.832,27.464,30.597,27.498l9.19.021c14.762.034,28.395-11.418,30.709-27.35c0,0,1.357-7.677,1.491-10.266.437-8.438.689-28.358.619-32.003Z" fill="#ffb2a1"/><path d="M213.971,143.167c0,0,8.26-.643,11.462-1.634c4.719-1.461,9.159-4.141,12.78-8.243c4.407-4.991,7.498-11.917,10.05-19.174.493-1.402,1.424-5.779,1.424-5.779s.97,4.378,1.483,5.779c2.659,7.256,5.874,14.183,10.449,19.174c3.759,4.101,8.361,6.781,13.251,8.243c3.656,1.092,9.367,1.559,13.208,1.577.002.074.003.167.004.256.011-1.964.01-3.456-.004-4.196-3.841-.018-9.552-.484-13.208-1.577-4.89-1.461-9.492-4.142-13.251-8.243-4.574-4.991-7.79-11.917-10.449-19.174-.514-1.402-1.003-2.833-1.483-4.28-.461,1.447-.931,2.879-1.424,4.28-2.552,7.256-5.643,14.183-10.05,19.174-3.621,4.101-8.061,6.781-12.78,8.243-3.202.991-8.051,1.459-11.407,1.552-.087,4.636-.055,4.022-.055,4.022Z" fill="#ff8e75"/><g><path d="M234.539,183.133c-.396-6.197-5.942-11.469-12.37-11.485-3.129-.008-5.667,1.245-7.462,3.273l.634,6.31c.56,3.977,1.949,7.694,3.715,10.974c1.686.869,3.566,1.374,5.51,1.378c5.879.015,10.35-4.551,9.973-10.45Z" fill="#ff8585"/><path d="M266.9,183.211c.423-6.195,5.991-11.439,12.416-11.423c3.127.008,5.953,1.429,7.737,3.466l-1.086,6.186c-.577,3.973-1.851,7.645-3.632,10.915-1.689.861-3.57,1.357-5.514,1.352-5.873-.014-10.324-4.6-9.921-10.496Z" fill="#ff8585"/></g><g><g><g><path d="M234.005,144.859c-4.093-.965-8.189-1.03-12.317-.233-1.264.244-.729,2.174.532,1.931c3.774-.729,7.51-.649,11.252.233c1.254.295,1.789-1.635.533-1.931v0Z" fill="#40273f"/></g></g><g><g><path d="M276.245,143.014c-4.083-.499-8.078-.141-12.005,1.076-1.227.38-.703,2.314.532,1.931c3.764-1.166,7.567-1.482,11.473-1.005c1.277.156,1.265-1.848,0-2.002v0Z" fill="#40273f"/></g></g><path d="M255.633,168.141c-.378,3.24-3.164,5.757-6.55,5.757s-6.172-2.517-6.55-5.757h13.1Z" fill="#ff8e75"/><g><g><path d="M258.145,183.279c-5.825,2.234-11.951,2.163-17.618-.531-2.455-1.167-4.612,2.492-2.143,3.666c6.662,3.168,13.97,3.613,20.89.959c2.526-.968,1.429-5.075-1.129-4.094v0Z" fill="#40273f"/></g></g><path d="M220.911,157.37c4.749,2.633,10.909,2.589,15.62-.111" fill="none" stroke="#40273f" stroke-width="3.3088" stroke-linecap="round" stroke-miterlimit="10"/><path d="M278.92,157.37c-4.75,2.633-10.909,2.589-15.62-.111" fill="none" stroke="#40273f" stroke-width="3.3088" stroke-linecap="round" stroke-miterlimit="10"/></g></g></g></g><script><![CDATA[!function(t,n){"object"==typeof exports&&"undefined"!=typeof module?module.exports=n():"function"==typeof define&&define.amd?define(n):((t="undefined"!=typeof globalThis?globalThis:t||self).__SVGATOR_PLAYER__=t.__SVGATOR_PLAYER__||{},t.__SVGATOR_PLAYER__["5c7f360c"]=n())}(this,(function(){"use strict";function t(t,n){var r=Object.keys(t);if(Object.getOwnPropertySymbols){var e=Object.getOwnPropertySymbols(t);n&&(e=e.filter((function(n){return Object.getOwnPropertyDescriptor(t,n).enumerable}))),r.push.apply(r,e)}return r}function n(n){for(var r=1;r<arguments.length;r++){var e=null!=arguments[r]?arguments[r]:{};r%2?t(Object(e),!0).forEach((function(t){u(n,t,e[t])})):Object.getOwnPropertyDescriptors?Object.defineProperties(n,Object.getOwnPropertyDescriptors(e)):t(Object(e)).forEach((function(t){Object.defineProperty(n,t,Object.getOwnPropertyDescriptor(e,t))}))}return n}function r(t){return(r="function"==typeof Symbol&&"symbol"==typeof Symbol.iterator?function(t){return typeof t}:function(t){return t&&"function"==typeof Symbol&&t.constructor===Symbol&&t!==Symbol.prototype?"symbol":typeof t})(t)}function e(t,n){if(!(t instanceof n))throw new TypeError("Cannot call a class as a function")}function i(t,n){for(var r=0;r<n.length;r++){var e=n[r];e.enumerable=e.enumerable||!1,e.configurable=!0,"value"in e&&(e.writable=!0),Object.defineProperty(t,e.key,e)}}function o(t,n,r){return n&&i(t.prototype,n),r&&i(t,r),t}function u(t,n,r){return n in t?Object.defineProperty(t,n,{value:r,enumerable:!0,configurable:!0,writable:!0}):t[n]=r,t}function a(t){return(a=Object.setPrototypeOf?Object.getPrototypeOf:function(t){return t.__proto__||Object.getPrototypeOf(t)})(t)}function l(t,n){return(l=Object.setPrototypeOf||function(t,n){return t.__proto__=n,t})(t,n)}function f(){if("undefined"==typeof Reflect||!Reflect.construct)return!1;if(Reflect.construct.sham)return!1;if("function"==typeof Proxy)return!0;try{return Boolean.prototype.valueOf.call(Reflect.construct(Boolean,[],(function(){}))),!0}catch(t){return!1}}function s(t,n,r){return(s=f()?Reflect.construct:function(t,n,r){var e=[null];e.push.apply(e,n);var i=new(Function.bind.apply(t,e));return r&&l(i,r.prototype),i}).apply(null,arguments)}function c(t,n){if(n&&("object"==typeof n||"function"==typeof n))return n;if(void 0!==n)throw new TypeError("Derived constructors may only return object or undefined");return function(t){if(void 0===t)throw new ReferenceError("this hasn't been initialised - super() hasn't been called");return t}(t)}function h(t,n,r){return(h="undefined"!=typeof Reflect&&Reflect.get?Reflect.get:function(t,n,r){var e=function(t,n){for(;!Object.prototype.hasOwnProperty.call(t,n)&&null!==(t=a(t)););return t}(t,n);if(e){var i=Object.getOwnPropertyDescriptor(e,n);return i.get?i.get.call(r):i.value}})(t,n,r||t)}function v(t){return function(t){if(Array.isArray(t))return y(t)}(t)||function(t){if("undefined"!=typeof Symbol&&null!=t[Symbol.iterator]||null!=t["@@iterator"])return Array.from(t)}(t)||function(t,n){if(!t)return;if("string"==typeof t)return y(t,n);var r=Object.prototype.toString.call(t).slice(8,-1);"Object"===r&&t.constructor&&(r=t.constructor.name);if("Map"===r||"Set"===r)return Array.from(t);if("Arguments"===r||/^(?:Ui|I)nt(?:8|16|32)(?:Clamped)?Array$/.test(r))return y(t,n)}(t)||function(){throw new TypeError("Invalid attempt to spread non-iterable instance.\nIn order to be iterable, non-array objects must have a [Symbol.iterator]() method.")}()}function y(t,n){(null==n||n>t.length)&&(n=t.length);for(var r=0,e=new Array(n);r<n;r++)e[r]=t[r];return e}var g=d(Math.pow(10,-6));function d(t){var n=arguments.length>1&&void 0!==arguments[1]?arguments[1]:6;if(Number.isInteger(t))return t;var r=Math.pow(10,n);return Math.round((+t+Number.EPSILON)*r)/r}function p(t,n){var r=arguments.length>2&&void 0!==arguments[2]?arguments[2]:g;return Math.abs(t-n)<r}var m=Math.PI/180;function b(t){return t}function w(t,n,r){var e=1-r;return 3*r*e*(t*e+n*r)+r*r*r}function A(){var t=arguments.length>0&&void 0!==arguments[0]?arguments[0]:0,n=arguments.length>1&&void 0!==arguments[1]?arguments[1]:0,r=arguments.length>2&&void 0!==arguments[2]?arguments[2]:1,e=arguments.length>3&&void 0!==arguments[3]?arguments[3]:1;return t<0||t>1||r<0||r>1?null:p(t,n)&&p(r,e)?b:function(i){if(i<=0)return t>0?i*n/t:0===n&&r>0?i*e/r:0;if(i>=1)return r<1?1+(i-1)*(e-1)/(r-1):1===r&&t<1?1+(i-1)*(n-1)/(t-1):1;for(var o,u=0,a=1;u<a;){var l=w(t,r,o=(u+a)/2);if(p(i,l))break;l<i?u=o:a=o}return w(n,e,o)}}function x(){return 1}function k(t){return 1===t?1:0}function S(){var t=arguments.length>0&&void 0!==arguments[0]?arguments[0]:1,n=arguments.length>1&&void 0!==arguments[1]?arguments[1]:0;if(1===t){if(0===n)return k;if(1===n)return x}var r=1/t;return function(t){return t>=1?1:(t+=n*r)-t%r}}var _=Math.sin,O=Math.cos,j=Math.acos,M=Math.asin,P=Math.tan,E=Math.atan2,I=Math.PI/180,R=180/Math.PI,F=Math.sqrt,N=function(){function t(){var n=arguments.length>0&&void 0!==arguments[0]?arguments[0]:1,r=arguments.length>1&&void 0!==arguments[1]?arguments[1]:0,i=arguments.length>2&&void 0!==arguments[2]?arguments[2]:0,o=arguments.length>3&&void 0!==arguments[3]?arguments[3]:1,u=arguments.length>4&&void 0!==arguments[4]?arguments[4]:0,a=arguments.length>5&&void 0!==arguments[5]?arguments[5]:0;e(this,t),this.m=[n,r,i,o,u,a],this.i=null,this.w=null,this.s=null}return o(t,[{key:"determinant",get:function(){var t=this.m;return t[0]*t[3]-t[1]*t[2]}},{key:"isIdentity",get:function(){if(null===this.i){var t=this.m;this.i=1===t[0]&&0===t[1]&&0===t[2]&&1===t[3]&&0===t[4]&&0===t[5]}return this.i}},{key:"point",value:function(t,n){var r=this.m;return{x:r[0]*t+r[2]*n+r[4],y:r[1]*t+r[3]*n+r[5]}}},{key:"translateSelf",value:function(){var t=arguments.length>0&&void 0!==arguments[0]?arguments[0]:0,n=arguments.length>1&&void 0!==arguments[1]?arguments[1]:0;if(!t&&!n)return this;var r=this.m;return r[4]+=r[0]*t+r[2]*n,r[5]+=r[1]*t+r[3]*n,this.w=this.s=this.i=null,this}},{key:"rotateSelf",value:function(){var t=arguments.length>0&&void 0!==arguments[0]?arguments[0]:0;if(t%=360){var n=_(t*=I),r=O(t),e=this.m,i=e[0],o=e[1];e[0]=i*r+e[2]*n,e[1]=o*r+e[3]*n,e[2]=e[2]*r-i*n,e[3]=e[3]*r-o*n,this.w=this.s=this.i=null}return this}},{key:"scaleSelf",value:function(){var t=arguments.length>0&&void 0!==arguments[0]?arguments[0]:1,n=arguments.length>1&&void 0!==arguments[1]?arguments[1]:1;if(1!==t||1!==n){var r=this.m;r[0]*=t,r[1]*=t,r[2]*=n,r[3]*=n,this.w=this.s=this.i=null}return this}},{key:"skewSelf",value:function(t,n){if(n%=360,(t%=360)||n){var r=this.m,e=r[0],i=r[1],o=r[2],u=r[3];t&&(t=P(t*I),r[2]+=e*t,r[3]+=i*t),n&&(n=P(n*I),r[0]+=o*n,r[1]+=u*n),this.w=this.s=this.i=null}return this}},{key:"resetSelf",value:function(){var t=arguments.length>0&&void 0!==arguments[0]?arguments[0]:1,n=arguments.length>1&&void 0!==arguments[1]?arguments[1]:0,r=arguments.length>2&&void 0!==arguments[2]?arguments[2]:0,e=arguments.length>3&&void 0!==arguments[3]?arguments[3]:1,i=arguments.length>4&&void 0!==arguments[4]?arguments[4]:0,o=arguments.length>5&&void 0!==arguments[5]?arguments[5]:0,u=this.m;return u[0]=t,u[1]=n,u[2]=r,u[3]=e,u[4]=i,u[5]=o,this.w=this.s=this.i=null,this}},{key:"recomposeSelf",value:function(){var t=arguments.length>0&&void 0!==arguments[0]?arguments[0]:null,n=arguments.length>1&&void 0!==arguments[1]?arguments[1]:null,r=arguments.length>2&&void 0!==arguments[2]?arguments[2]:null,e=arguments.length>3&&void 0!==arguments[3]?arguments[3]:null,i=arguments.length>4&&void 0!==arguments[4]?arguments[4]:null;return this.isIdentity||this.resetSelf(),t&&(t.x||t.y)&&this.translateSelf(t.x,t.y),n&&this.rotateSelf(n),r&&(r.x&&this.skewSelf(r.x,0),r.y&&this.skewSelf(0,r.y)),!e||1===e.x&&1===e.y||this.scaleSelf(e.x,e.y),i&&(i.x||i.y)&&this.translateSelf(i.x,i.y),this}},{key:"decompose",value:function(){var t=arguments.length>0&&void 0!==arguments[0]?arguments[0]:0,n=arguments.length>1&&void 0!==arguments[1]?arguments[1]:0,r=this.m,e=r[0]*r[0]+r[1]*r[1],i=[[r[0],r[1]],[r[2],r[3]]],o=F(e);if(0===o)return{origin:{x:d(r[4]),y:d(r[5])},translate:{x:d(t),y:d(n)},scale:{x:0,y:0},skew:{x:0,y:0},rotate:0};i[0][0]/=o,i[0][1]/=o;var u=r[0]*r[3]-r[1]*r[2]<0;u&&(o=-o);var a=i[0][0]*i[1][0]+i[0][1]*i[1][1];i[1][0]-=i[0][0]*a,i[1][1]-=i[0][1]*a;var l=F(i[1][0]*i[1][0]+i[1][1]*i[1][1]);if(0===l)return{origin:{x:d(r[4]),y:d(r[5])},translate:{x:d(t),y:d(n)},scale:{x:d(o),y:0},skew:{x:0,y:0},rotate:0};i[1][0]/=l,i[1][1]/=l,a/=l;var f=0;return i[1][1]<0?(f=j(i[1][1])*R,i[0][1]<0&&(f=360-f)):f=M(i[0][1])*R,u&&(f=-f),a=E(a,F(i[0][0]*i[0][0]+i[0][1]*i[0][1]))*R,u&&(a=-a),{origin:{x:d(r[4]),y:d(r[5])},translate:{x:d(t),y:d(n)},scale:{x:d(o),y:d(l)},skew:{x:d(a),y:0},rotate:d(f)}}},{key:"clone",value:function(){var t=this.m;return new this.constructor(t[0],t[1],t[2],t[3],t[4],t[5])}},{key:"toString",value:function(){var t=arguments.length>0&&void 0!==arguments[0]?arguments[0]:" ";if(null===this.s){var n=this.m.map((function(t){return d(t)}));1===n[0]&&0===n[1]&&0===n[2]&&1===n[3]?this.s="translate("+n[4]+t+n[5]+")":this.s="matrix("+n.join(t)+")"}return this.s}}],[{key:"create",value:function(t){return t?Array.isArray(t)?s(this,v(t)):t instanceof this?t.clone():(new this).recomposeSelf(t.origin,t.rotate,t.skew,t.scale,t.translate):new this}}]),t}();function T(t,n,r){return t>=.5?r:n}function B(t,n,r){return 0===t||n===r?n:t*(r-n)+n}function q(t,n,r){var e=B(t,n,r);return e<=0?0:e}function L(t,n,r){var e=B(t,n,r);return e<=0?0:e>=1?1:e}function C(t,n,r){return 0===t?n:1===t?r:{x:B(t,n.x,r.x),y:B(t,n.y,r.y)}}function D(t,n,r){var e=function(t,n,r){return Math.round(B(t,n,r))}(t,n,r);return e<=0?0:e>=255?255:e}function z(t,n,r){return 0===t?n:1===t?r:{r:D(t,n.r,r.r),g:D(t,n.g,r.g),b:D(t,n.b,r.b),a:B(t,null==n.a?1:n.a,null==r.a?1:r.a)}}function V(t,n){for(var r=[],e=0;e<t;e++)r.push(n);return r}function G(t,n){if(--n<=0)return t;var r=(t=Object.assign([],t)).length;do{for(var e=0;e<r;e++)t.push(t[e])}while(--n>0);return t}var Y,$=function(){function t(n){e(this,t),this.list=n,this.length=n.length}return o(t,[{key:"setAttribute",value:function(t,n){for(var r=this.list,e=0;e<this.length;e++)r[e].setAttribute(t,n)}},{key:"removeAttribute",value:function(t){for(var n=this.list,r=0;r<this.length;r++)n[r].removeAttribute(t)}},{key:"style",value:function(t,n){for(var r=this.list,e=0;e<this.length;e++)r[e].style[t]=n}}]),t}(),U=/-./g,Q=function(t,n){return n.toUpperCase()};function H(t){return"function"==typeof t?t:T}function J(t){return t?"function"==typeof t?t:Array.isArray(t)?function(t){var n=arguments.length>1&&void 0!==arguments[1]?arguments[1]:b;if(!Array.isArray(t))return n;switch(t.length){case 1:return S(t[0])||n;case 2:return S(t[0],t[1])||n;case 4:return A(t[0],t[1],t[2],t[3])||n}return n}(t,null):function(t,n){var r=arguments.length>2&&void 0!==arguments[2]?arguments[2]:b;switch(t){case"linear":return b;case"steps":return S(n.steps||1,n.jump||0)||r;case"bezier":case"cubic-bezier":return A(n.x1||0,n.y1||0,n.x2||0,n.y2||0)||r}return r}(t.type,t.value,null):null}function Z(t,n,r){var e=arguments.length>3&&void 0!==arguments[3]&&arguments[3],i=n.length-1;if(t<=n[0].t)return e?[0,0,n[0].v]:n[0].v;if(t>=n[i].t)return e?[i,1,n[i].v]:n[i].v;var o,u=n[0],a=null;for(o=1;o<=i;o++){if(!(t>n[o].t)){a=n[o];break}u=n[o]}return null==a?e?[i,1,n[i].v]:n[i].v:u.t===a.t?e?[o,1,a.v]:a.v:(t=(t-u.t)/(a.t-u.t),u.e&&(t=u.e(t)),e?[o,t,r(t,u.v,a.v)]:r(t,u.v,a.v))}function K(t,n){var r=arguments.length>2&&void 0!==arguments[2]?arguments[2]:null;return t&&t.length?"function"!=typeof n?null:("function"!=typeof r&&(r=null),function(e){var i=Z(e,t,n);return null!=i&&r&&(i=r(i)),i}):null}function W(t,n){return t.t-n.t}function X(t,n,e,i,o){var u,a="@"===e[0],l="#"===e[0],f=Y[e],s=T;switch(a?(u=e.substr(1),e=u.replace(U,Q)):l&&(e=e.substr(1)),r(f)){case"function":if(s=f(i,o,Z,J,e,a,n,t),l)return s;break;case"string":s=K(i,H(f));break;case"object":if((s=K(i,H(f.i),f.f))&&"function"==typeof f.u)return f.u(n,s,e,a,t)}return s?function(t,n,r){if(arguments.length>3&&void 0!==arguments[3]&&arguments[3])return t instanceof $?function(e){return t.style(n,r(e))}:function(e){return t.style[n]=r(e)};if(Array.isArray(n)){var e=n.length;return function(i){var o=r(i);if(null==o)for(var u=0;u<e;u++)t[u].removeAttribute(n);else for(var a=0;a<e;a++)t[a].setAttribute(n,o)}}return function(e){var i=r(e);null==i?t.removeAttribute(n):t.setAttribute(n,i)}}(n,e,s,a):null}function tt(t,n,e,i){if(!i||"object"!==r(i))return null;var o=null,u=null;return Array.isArray(i)?u=function(t){if(!t||!t.length)return null;for(var n=0;n<t.length;n++)t[n].e&&(t[n].e=J(t[n].e));return t.sort(W)}(i):(u=i.keys,o=i.data||null),u?X(t,n,e,u,o):null}function nt(t,n,r){if(!r)return null;var e=[];for(var i in r)if(r.hasOwnProperty(i)){var o=tt(t,n,i,r[i]);o&&e.push(o)}return e.length?e:null}function rt(t,n){if(!n.duration||n.duration<0)return null;var r=function(t,n){if(!n)return null;var r=[];if(Array.isArray(n))for(var e=n.length,i=0;i<e;i++){var o=n[i];if(2===o.length){var u=null;if("string"==typeof o[0])u=t.getElementById(o[0]);else if(Array.isArray(o[0])){u=[];for(var a=0;a<o[0].length;a++)if("string"==typeof o[0][a]){var l=t.getElementById(o[0][a]);l&&u.push(l)}u=u.length?1===u.length?u[0]:new $(u):null}if(u){var f=nt(t,u,o[1]);f&&(r=r.concat(f))}}}else for(var s in n)if(n.hasOwnProperty(s)){var c=t.getElementById(s);if(c){var h=nt(t,c,n[s]);h&&(r=r.concat(h))}}return r.length?r:null}(t,n.elements);return r?function(t,n){var r=arguments.length>2&&void 0!==arguments[2]?arguments[2]:1/0,e=arguments.length>3&&void 0!==arguments[3]?arguments[3]:1,i=arguments.length>4&&void 0!==arguments[4]&&arguments[4],o=arguments.length>5&&void 0!==arguments[5]?arguments[5]:1,u=t.length,a=e>0?n:0;i&&r%2==0&&(a=n-a);var l=null;return function(f,s){var c=f%n,h=1+(f-c)/n;s*=e,i&&h%2==0&&(s=-s);var v=!1;if(h>r)c=a,v=!0,-1===o&&(c=e>0?0:n);else if(s<0&&(c=n-c),c===l)return!1;l=c;for(var y=0;y<u;y++)t[y](c);return v}}(r,n.duration,n.iterations||1/0,n.direction||1,!!n.alternate,n.fill||1):null}function et(t){return+("0x"+(t.replace(/[^0-9a-fA-F]+/g,"")||27))}function it(t,n,r){return!t||!r||n>t.length?t:t.substring(0,n)+it(t.substring(n+1),r,r)}function ot(t){var n=arguments.length>1&&void 0!==arguments[1]?arguments[1]:27;return!t||t%n?t%n:ot(t/n,n)}function ut(t,n,r){if(t&&t.length){var e=et(r),i=et(n),o=ot(e)+5,u=it(t,ot(e,5),o);return u=u.replace(/\x7c$/g,"==").replace(/\x2f$/g,"="),u=function(t,n,r){var e=+("0x"+t.substring(0,4));t=t.substring(4);for(var i=n%e+r%27,o=[],u=0;u<t.length;u+=2)if("|"!==t[u]){var a=+("0x"+t[u]+t[u+1])-i;o.push(a)}else{var l=+("0x"+t.substring(u+1,u+1+4))-i;u+=3,o.push(l)}return String.fromCharCode.apply(String,o)}(u=(u=atob(u)).replace(/[\x41-\x5A]/g,""),i,e),u=JSON.parse(u)}}Number.isInteger||(Number.isInteger=function(t){return"number"==typeof t&&isFinite(t)&&Math.floor(t)===t}),Number.EPSILON||(Number.EPSILON=2220446049250313e-31);var at=function(){function t(n,r){var i=arguments.length>2&&void 0!==arguments[2]?arguments[2]:{};e(this,t),this._id=0,this._running=!1,this._rollingBack=!1,this._animations=n,this.duration=r.duration,this.alternate=r.alternate,this.fill=r.fill,this.iterations=r.iterations,this.direction=i.direction||1,this.speed=i.speed||1,this.fps=i.fps||100,this.offset=i.offset||0,this.rollbackStartOffset=0}return o(t,[{key:"_rollback",value:function(){var t=this,n=1/0,r=null;this.rollbackStartOffset=this.offset,this._rollingBack||(this._rollingBack=!0,this._running=!0);this._id=window.requestAnimationFrame((function e(i){if(t._rollingBack){null==r&&(r=i);var o=i-r,u=t.rollbackStartOffset-o,a=Math.round(u*t.speed);if(a>t.duration&&n!=1/0){var l=!!t.alternate&&a/t.duration%2>1,f=a%t.duration;a=(f+=l?t.duration:0)||t.duration}var s=t.fps?1e3/t.fps:0,c=Math.max(0,a);if(c<n-s){t.offset=c,n=c;for(var h=t._animations,v=h.length,y=0;y<v;y++)h[y](c,t.direction)}var g=!1;if(t.iterations>0&&-1===t.fill){var d=t.iterations*t.duration,p=d==a;a=p?0:a,t.offset=p?0:t.offset,g=a>d}a>0&&t.offset>=a&&!g?t._id=window.requestAnimationFrame(e):t.stop()}}))}},{key:"_start",value:function(){var t=this,n=arguments.length>0&&void 0!==arguments[0]?arguments[0]:0,r=-1/0,e=null,i={},o=function o(u){t._running=!0,null==e&&(e=u);var a=Math.round((u-e+n)*t.speed),l=t.fps?1e3/t.fps:0;if(a>r+l&&!t._rollingBack){t.offset=a,r=a;for(var f=t._animations,s=f.length,c=0,h=0;h<s;h++)i[h]?c++:(i[h]=f[h](a,t.direction),i[h]&&c++);if(c===s)return void t._stop()}t._id=window.requestAnimationFrame(o)};this._id=window.requestAnimationFrame(o)}},{key:"_stop",value:function(){this._id&&window.cancelAnimationFrame(this._id),this._running=!1,this._rollingBack=!1}},{key:"play",value:function(){!this._rollingBack&&this._running||(this._rollingBack=!1,this.rollbackStartOffset>this.duration&&(this.offset=this.rollbackStartOffset-(this.rollbackStartOffset-this.offset)%this.duration,this.rollbackStartOffset=0),this._start(this.offset))}},{key:"stop",value:function(){this._stop(),this.offset=0,this.rollbackStartOffset=0;var t=this.direction,n=this._animations;window.requestAnimationFrame((function(){for(var r=0;r<n.length;r++)n[r](0,t)}))}},{key:"reachedToEnd",value:function(){return this.iterations>0&&this.offset>=this.iterations*this.duration}},{key:"restart",value:function(){this._stop(),this.offset=0,this._start()}},{key:"pause",value:function(){this._stop()}},{key:"reverse",value:function(){this.direction=-this.direction}}],[{key:"build",value:function(r,e){return delete r.animationSettings,r.options=ut(r.options,r.root,"5c7f360c"),r.animations.map((function(t){var e=ut(t.s,r.root,"5c7f360c");for(var i in delete t.s,r.animationSettings||(r.animationSettings=n({},e)),e)e.hasOwnProperty(i)&&(t[i]=e[i])})),(r=function(t,n){if(Y=n,!t||!t.root||!Array.isArray(t.animations))return null;for(var r=document.getElementsByTagName("svg"),e=!1,i=0;i<r.length;i++)if(r[i].id===t.root&&!r[i].svgatorAnimation){(e=r[i]).svgatorAnimation=!0;break}if(!e)return null;var o=t.animations.map((function(t){return rt(e,t)})).filter((function(t){return!!t}));return o.length?{element:e,animations:o,animationSettings:t.animationSettings,options:t.options||void 0}:null}(r,e))?{el:r.element,options:r.options||{},player:new t(r.animations,r.animationSettings,r.options)}:null}},{key:"push",value:function(t){return this.build(t)}},{key:"init",value:function(){var t=this,n=window.__SVGATOR_PLAYER__&&window.__SVGATOR_PLAYER__["5c7f360c"];Array.isArray(n)&&n.splice(0).forEach((function(n){return t.build(n)}))}}]),t}();function lt(t){return d(t)+""}function ft(t){var n=arguments.length>1&&void 0!==arguments[1]?arguments[1]:" ";return t&&t.length?t.map(lt).join(n):""}function st(t){if(!t)return"transparent";if(null==t.a||t.a>=1){var n=function(t){return 1===(t=parseInt(t).toString(16)).length?"0"+t:t},r=function(t){return t.charAt(0)===t.charAt(1)},e=n(t.r),i=n(t.g),o=n(t.b);return r(e)&&r(i)&&r(o)&&(e=e.charAt(0),i=i.charAt(0),o=o.charAt(0)),"#"+e+i+o}return"rgba("+t.r+","+t.g+","+t.b+","+t.a+")"}function ct(t){return t?"url(#"+t+")":"none"}!function(){for(var t=0,n=["ms","moz","webkit","o"],r=0;r<n.length&&!window.requestAnimationFrame;++r)window.requestAnimationFrame=window[n[r]+"RequestAnimationFrame"],window.cancelAnimationFrame=window[n[r]+"CancelAnimationFrame"]||window[n[r]+"CancelRequestAnimationFrame"];window.requestAnimationFrame||(window.requestAnimationFrame=function(n){var r=Date.now(),e=Math.max(0,16-(r-t)),i=window.setTimeout((function(){n(r+e)}),e);return t=r+e,i},window.cancelAnimationFrame=window.clearTimeout)}();var ht={f:null,i:function(t,n,r){return 0===t?n:1===t?r:{x:q(t,n.x,r.x),y:q(t,n.y,r.y)}},u:function(t,n){return function(r){var e=n(r);t.setAttribute("rx",lt(e.x)),t.setAttribute("ry",lt(e.y))}}},vt={f:null,i:function(t,n,r){return 0===t?n:1===t?r:{width:q(t,n.width,r.width),height:q(t,n.height,r.height)}},u:function(t,n){return function(r){var e=n(r);t.setAttribute("width",lt(e.width)),t.setAttribute("height",lt(e.height))}}};Object.freeze({M:2,L:2,Z:0,H:1,V:1,C:6,Q:4,T:2,S:4,A:7});var yt={},gt=null;function dt(t){var n=function(){if(gt)return gt;if("object"!==("undefined"==typeof document?"undefined":r(document))||!document.createElementNS)return{};var t=document.createElementNS("http://www.w3.org/2000/svg","svg");return t&&t.style?(t.style.position="absolute",t.style.opacity="0.01",t.style.zIndex="-9999",t.style.left="-9999px",t.style.width="1px",t.style.height="1px",gt={svg:t}):{}}().svg;if(!n)return function(t){return null};var e=document.createElementNS(n.namespaceURI,"path");e.setAttributeNS(null,"d",t),e.setAttributeNS(null,"fill","none"),e.setAttributeNS(null,"stroke","none"),n.appendChild(e);var i=e.getTotalLength();return function(t){var n=e.getPointAtLength(i*t);return{x:n.x,y:n.y}}}function pt(t){return yt[t]?yt[t]:yt[t]=dt(t)}function mt(t,n,r,e){if(!t||!e)return!1;var i=["M",t.x,t.y];if(n&&r&&(i.push("C"),i.push(n.x),i.push(n.y),i.push(r.x),i.push(r.y)),n?!r:r){var o=n||r;i.push("Q"),i.push(o.x),i.push(o.y)}return n||r||i.push("L"),i.push(e.x),i.push(e.y),i.join(" ")}function bt(t,n,r,e){var i=arguments.length>4&&void 0!==arguments[4]?arguments[4]:1,o=mt(t,n,r,e),u=pt(o);try{return u(i)}catch(t){return null}}function wt(t,n,r,e){var i=1-e;return i*i*t+2*i*e*n+e*e*r}function At(t,n,r,e){return 2*(1-e)*(n-t)+2*e*(r-n)}function xt(t,n,r,e){var i=arguments.length>4&&void 0!==arguments[4]&&arguments[4],o=bt(t,n,null,r,e);return o||(o={x:wt(t.x,n.x,r.x,e),y:wt(t.y,n.y,r.y,e)}),i&&(o.a=kt(t,n,r,e)),o}function kt(t,n,r,e){return Math.atan2(At(t.y,n.y,r.y,e),At(t.x,n.x,r.x,e))}function St(t,n,r,e,i){var o=i*i;return i*o*(e-t+3*(n-r))+3*o*(t+r-2*n)+3*i*(n-t)+t}function _t(t,n,r,e,i){var o=1-i;return 3*(o*o*(n-t)+2*o*i*(r-n)+i*i*(e-r))}function Ot(t,n,r,e,i){var o=arguments.length>5&&void 0!==arguments[5]&&arguments[5],u=bt(t,n,r,e,i);return u||(u={x:St(t.x,n.x,r.x,e.x,i),y:St(t.y,n.y,r.y,e.y,i)}),o&&(u.a=jt(t,n,r,e,i)),u}function jt(t,n,r,e,i){return Math.atan2(_t(t.y,n.y,r.y,e.y,i),_t(t.x,n.x,r.x,e.x,i))}function Mt(t,n,r){return t+(n-t)*r}function Pt(t,n,r){var e=arguments.length>3&&void 0!==arguments[3]&&arguments[3],i={x:Mt(t.x,n.x,r),y:Mt(t.y,n.y,r)};return e&&(i.a=Et(t,n)),i}function Et(t,n){return Math.atan2(n.y-t.y,n.x-t.x)}function It(t,n,r){var e=arguments.length>3&&void 0!==arguments[3]&&arguments[3];if(Ft(n)){if(Nt(r))return xt(n,r.start,r,t,e)}else if(Ft(r)){if(n.end)return xt(n,n.end,r,t,e)}else{if(n.end)return r.start?Ot(n,n.end,r.start,r,t,e):xt(n,n.end,r,t,e);if(r.start)return xt(n,r.start,r,t,e)}return Pt(n,r,t,e)}function Rt(t,n,r){var e=It(t,n,r,!0);return e.a=function(t){return arguments.length>1&&void 0!==arguments[1]&&arguments[1]?t+Math.PI:t}(e.a)/m,e}function Ft(t){return!t.type||"corner"===t.type}function Nt(t){return null!=t.start&&!Ft(t)}var Tt=new N;var Bt={f:lt,i:B},qt={f:lt,i:L};function Lt(t,n,r){return t.map((function(t){return function(t,n,r){var e=t.v;if(!e||"g"!==e.t||e.s||!e.v||!e.r)return t;var i=r.getElementById(e.r),o=i&&i.querySelectorAll("stop")||[];return e.s=e.v.map((function(t,n){var r=o[n]&&o[n].getAttribute("offset");return{c:t,o:r=d(parseInt(r)/100)}})),delete e.v,t}(t,0,r)}))}var Ct={gt:"gradientTransform",c:{x:"cx",y:"cy"},rd:"r",f:{x:"x1",y:"y1"},to:{x:"x2",y:"y2"}};function Dt(t,n,e,i,o,u,a,l){return Lt(t,0,l),n=function(t,n,r){for(var e,i,o,u=t.length-1,a={},l=0;l<=u;l++)(e=t[l]).e&&(e.e=n(e.e)),e.v&&"g"===(i=e.v).t&&i.r&&(o=r.getElementById(i.r))&&(a[i.r]={e:o,s:o.querySelectorAll("stop")});return a}(t,i,l),function(i){var o=e(i,t,zt);if(!o)return"none";if("c"===o.t)return st(o.v);if("g"===o.t){if(!n[o.r])return ct(o.r);var u=n[o.r];return function(t,n){for(var r=t.s,e=r.length;e<n.length;e++){var i=r[r.length-1].cloneNode();i.id=Yt(i.id),t.e.appendChild(i),r=t.s=t.e.querySelectorAll("stop")}for(var o=0,u=r.length,a=n.length-1;o<u;o++)r[o].setAttribute("stop-color",st(n[Math.min(o,a)].c)),r[o].setAttribute("offset",n[Math.min(o,a)].o)}(u,o.s),Object.keys(Ct).forEach((function(t){if(void 0!==o[t])if("object"!==r(Ct[t])){var n,e="gt"===t?(n=o[t],Array.isArray(n)?"matrix("+n.join(" ")+")":""):o[t],i=Ct[t];u.e.setAttribute(i,e)}else Object.keys(Ct[t]).forEach((function(n){if(void 0!==o[t][n]){var r=o[t][n],e=Ct[t][n];u.e.setAttribute(e,r)}}))})),ct(o.r)}return"none"}}function zt(t,r,e){if(0===t)return r;if(1===t)return e;if(r&&e){var i=r.t;if(i===e.t)switch(r.t){case"c":return{t:i,v:z(t,r.v,e.v)};case"g":if(r.r===e.r){var o={t:i,s:Vt(t,r.s,e.s),r:r.r};return r.gt&&e.gt&&(o.gt=function(t,n,r){var e=n.length;if(e!==r.length)return T(t,n,r);for(var i=new Array(e),o=0;o<e;o++)i[o]=B(t,n[o],r[o]);return i}(t,r.gt,e.gt)),r.c?(o.c=C(t,r.c,e.c),o.rd=q(t,r.rd,e.rd)):r.f&&(o.f=C(t,r.f,e.f),o.to=C(t,r.to,e.to)),o}}if("c"===r.t&&"g"===e.t||"c"===e.t&&"g"===r.t){var u="c"===r.t?r:e,a="g"===r.t?n({},r):n({},e),l=a.s.map((function(t){return{c:u.v,o:t.o}}));return a.s="c"===r.t?Vt(t,l,a.s):Vt(t,a.s,l),a}}return T(t,r,e)}function Vt(t,n,r){if(n.length===r.length)return n.map((function(n,e){return Gt(t,n,r[e])}));for(var e=Math.max(n.length,r.length),i=[],o=0;o<e;o++){var u=Gt(t,n[Math.min(o,n.length-1)],r[Math.min(o,r.length-1)]);i.push(u)}return i}function Gt(t,n,r){return{o:L(t,n.o,r.o||0),c:z(t,n.c,r.c||{})}}function Yt(t){return t.replace(/-fill-([0-9]+)$/,(function(t,n){return"-fill-"+(+n+1)}))}var $t={fill:Dt,"fill-opacity":qt,stroke:Dt,"stroke-opacity":qt,"stroke-width":Bt,"stroke-dashoffset":{f:lt,i:B},"stroke-dasharray":{f:function(t){var n=arguments.length>1&&void 0!==arguments[1]?arguments[1]:" ";return t&&t.length>0&&(t=t.map((function(t){return d(t,4)}))),ft(t,n)},i:function(t,n,r){var e,i,o,u=n.length,a=r.length;if(u!==a)if(0===u)n=V(u=a,0);else if(0===a)a=u,r=V(u,0);else{var l=(o=(e=u)*(i=a)/function(t,n){for(var r;n;)r=n,n=t%n,t=r;return t||1}(e,i))<0?-o:o;n=G(n,Math.floor(l/u)),r=G(r,Math.floor(l/a)),u=a=l}for(var f=[],s=0;s<u;s++)f.push(d(q(t,n[s],r[s])));return f}},opacity:qt,transform:function(t,n,e,i){if(!(t=function(t,n){if(!t||"object"!==r(t))return null;var e=!1;for(var i in t)t.hasOwnProperty(i)&&(t[i]&&t[i].length?(t[i].forEach((function(t){t.e&&(t.e=n(t.e))})),e=!0):delete t[i]);return e?t:null}(t,i)))return null;var o=function(r,i,o){var u=arguments.length>3&&void 0!==arguments[3]?arguments[3]:null;return t[r]?e(i,t[r],o):n&&n[r]?n[r]:u};return n&&n.a&&t.o?function(n){var r=e(n,t.o,Rt);return Tt.recomposeSelf(r,o("r",n,B,0)+r.a,o("k",n,C),o("s",n,C),o("t",n,C)).toString()}:function(t){return Tt.recomposeSelf(o("o",t,It,null),o("r",t,B,0),o("k",t,C),o("s",t,C),o("t",t,C)).toString()}},r:Bt,"#size":vt,"#radius":ht,_:function(t,n){if(Array.isArray(t))for(var r=0;r<t.length;r++)this[t[r]]=n;else this[t]=n}},Ut=function(t){!function(t,n){if("function"!=typeof n&&null!==n)throw new TypeError("Super expression must either be null or a function");t.prototype=Object.create(n&&n.prototype,{constructor:{value:t,writable:!0,configurable:!0}}),n&&l(t,n)}(u,t);var n,r,i=(n=u,r=f(),function(){var t,e=a(n);if(r){var i=a(this).constructor;t=Reflect.construct(e,arguments,i)}else t=e.apply(this,arguments);return c(this,t)});function u(){return e(this,u),i.apply(this,arguments)}return o(u,null,[{key:"build",value:function(t){var n=h(a(u),"build",this).call(this,t,$t);if(!n)return null;n.el,n.options,function(t,n,r){t.play()}(n.player)}}]),u}(at);return Ut.init(),Ut}));
(function(s,i,o,w){w[o]=w[o]||{};w[o][s]=w[o][s]||[];w[o][s].push(i);})('5c7f360c',{"root":"eLd7zPsDT501","animations":[{"elements":{"eLd7zPsDT507":{"transform":{"data":{"t":{"x":-249.520584,"y":-103.798649}},"keys":{"o":[{"t":0,"v":{"x":249.520584,"y":103.798649,"type":"corner"}},{"t":3000,"v":{"x":280.626088,"y":103.798649,"type":"corner"}}]}}}},"s":"MMDA1M2M2TDZkYWZFYzKBEYmRhY2JmYjRiYWIB5TjZkODU3ZTdiN2JBIN2I3NzZkYWZiNGJkYAjBhZWJmYjRNYmFiOUF02ZDg1N2NYNzc2ZE1YiNGJmYjBiZGFjYmZiWNGJhYjliZTZkODU3YS083NzZkYjFiNGI3YjQc2ZDg1N2M3NzZkYWNJiN2JmYjBiZGI5YWNiNZmIwNmQ4NWIxYWNiNF2JlYjA3NzZkYmViYmDIwYjBVYWY2ZDg1N2NJjOA|"}],"options":"MCDAxMDg4MmY4MDgxNmNU3ZjgxMmY0NzJmNzkN3YzZlNzEyZjhh"},'__SVGATOR_PLAYER__',window)]]></script></svg>