<?xml version="1.0" encoding="iso-8859-1"?>
<!-- Generator: Adobe Illustrator 26.0.1, SVG Export Plug-In . SVG Version: 6.00 Build 0)  -->
<svg version="1.1" id="OBJECTS" xmlns="http://www.w3.org/2000/svg" xmlns:xlink="http://www.w3.org/1999/xlink" x="0px" y="0px"
	 viewBox="0 0 500 500" style="enable-background:new 0 0 500 500;" xml:space="preserve">
<g>
	<path style="fill:#FCD73D;" d="M253.421,67.614c0.887-1.029,0.208-2.628-1.148-2.706l-3.236-0.185
		c-0.539-0.031-1.028-0.325-1.307-0.786l-1.682-2.77c-0.705-1.161-2.435-1.01-2.928,0.256l-1.176,3.02
		c-0.196,0.503-0.626,0.877-1.151,1.001l-3.154,0.743c-1.322,0.312-1.713,2.004-0.662,2.864l2.509,2.052
		c0.418,0.342,0.64,0.867,0.596,1.404l-0.268,3.23c-0.112,1.354,1.377,2.249,2.52,1.514l2.726-1.752
		c0.454-0.292,1.022-0.341,1.52-0.133l2.989,1.253c1.253,0.525,2.564-0.614,2.219-1.928l-0.824-3.134
		c-0.137-0.522-0.009-1.078,0.343-1.486L253.421,67.614z"/>
	<path style="fill:#FCD73D;" d="M377.549,96.127l-2.898-0.703c-0.482-0.117-0.876-0.464-1.053-0.928l-1.064-2.786
		c-0.446-1.168-2.037-1.317-2.693-0.253l-1.564,2.539c-0.26,0.423-0.712,0.69-1.208,0.715l-2.978,0.151
		c-1.248,0.063-1.882,1.53-1.073,2.483l1.931,2.272c0.321,0.378,0.436,0.89,0.307,1.37l-0.777,2.879
		c-0.326,1.207,0.874,2.263,2.03,1.788l2.758-1.135c0.459-0.189,0.982-0.14,1.397,0.131l2.498,1.629
		c1.047,0.683,2.423-0.132,2.327-1.378l-0.227-2.973c-0.038-0.495,0.17-0.977,0.557-1.288l2.321-1.872
		C379.113,97.981,378.763,96.421,377.549,96.127z"/>
	<path style="fill:#FCD73D;" d="M73.283,214.744l-4.585-3.505c-0.763-0.583-1.191-1.505-1.143-2.465l0.288-5.764
		c0.121-2.416-2.582-3.922-4.573-2.548l-4.75,3.278c-0.791,0.546-1.799,0.667-2.697,0.325l-5.393-2.055
		c-2.261-0.861-4.528,1.243-3.837,3.562l1.649,5.531c0.275,0.921,0.078,1.917-0.524,2.666l-3.621,4.494
		c-1.518,1.884-0.217,4.691,2.202,4.75l5.77,0.141c0.96,0.023,1.848,0.518,2.373,1.322l3.155,4.833
		c1.323,2.026,4.394,1.656,5.197-0.626l1.917-5.444c0.319-0.906,1.064-1.597,1.991-1.848l5.571-1.508
		C74.608,219.249,75.205,216.213,73.283,214.744z"/>
	<path style="fill:#FFFFFF;" d="M111.274,109.428l-2.641-2.019c-0.44-0.336-0.686-0.867-0.658-1.42l0.166-3.32
		c0.07-1.392-1.487-2.259-2.634-1.468l-2.736,1.888c-0.455,0.314-1.036,0.384-1.553,0.187l-3.106-1.184
		c-1.302-0.496-2.608,0.716-2.21,2.052l0.95,3.186c0.158,0.53,0.045,1.104-0.302,1.535l-2.086,2.589
		c-0.874,1.085-0.125,2.702,1.268,2.736l3.323,0.081c0.553,0.013,1.064,0.298,1.367,0.762l1.817,2.784
		c0.762,1.167,2.531,0.954,2.994-0.361l1.104-3.136c0.184-0.522,0.613-0.92,1.147-1.065l3.209-0.868
		C112.037,112.023,112.381,110.275,111.274,109.428z"/>
	<path style="fill:#FFFFFF;" d="M443.461,192.147l-4-2.117c-0.666-0.352-1.116-1.01-1.203-1.758l-0.524-4.495
		c-0.219-1.884-2.504-2.699-3.866-1.379l-3.25,3.15c-0.541,0.524-1.305,0.749-2.044,0.601l-4.437-0.891
		c-1.86-0.374-3.341,1.548-2.506,3.251l1.992,4.064c0.332,0.676,0.309,1.473-0.06,2.129l-2.219,3.944
		c-0.93,1.653,0.44,3.656,2.318,3.388l4.48-0.638c0.746-0.106,1.496,0.161,2.006,0.715l3.066,3.329
		c1.285,1.395,3.612,0.711,3.938-1.157l0.777-4.458c0.129-0.742,0.616-1.373,1.3-1.687l4.113-1.887
		C445.069,195.459,445.138,193.034,443.461,192.147z"/>
	<g>
		<g>
			<g>
				<path style="fill:#D3C6B2;" d="M404.879,315.234c-1.16-12.385-4.88-24.404-8.58-36.327c-2.518-8.113-5.102-16.364-10.014-23.407
					c-4.687-6.719-11.254-11.998-17.507-17.432c-10.903-9.477-21.431-20.216-25.842-33.649c-3.285-10.001-3.349-21.682-10.955-29.24
					c-10.906-10.836-32.587-10.256-46.444-6.173c-16.295,4.801-22.092,19.403-19.696,34.817c2.307,14.844,1.858,30.376,2.207,45.36
					c0.866,37.181,2.108,74.832,0.998,111.736c-0.014,0.475-0.039,0.981-0.329,1.367c-0.726,0.97-2.301,0.452-3.425-0.068
					c-7.643-3.539-17.189-2.579-24.284,1.882c-7.095,4.46-11.707,12.116-12.879,20.15c-1.34,9.189,1.521,18.613-0.033,27.771
					c-7.943,1.606-16.056,4.216-21.67,9.817c-5.487,5.475-10.806,16.008-2.416,21.253c7.092-0.729,14.2-1.254,21.32-1.615
					c21.51-2.499,43.054-4.536,64.756-4.331c2.563,0.024,4.236,1.421,5.022,3.23c7.807-0.215,15.615-0.374,23.426-0.386
					c3.853-0.006,5.684,3.01,5.527,5.95c14.081-0.609,28.141-1.571,42.161-3.057c3.749-0.397,7.663-0.891,10.759-2.948
					c3.222-2.141,5.083-5.66,6.672-9.087c10.842-23.384,14.941-49.031,18.623-74.362
					C404.266,342.809,406.168,328.986,404.879,315.234z"/>
			</g>
			<g>
				<path style="fill:#D8DEEF;" d="M148.792,215.445c-10.636,6.115-15.251,19.338-15.41,31.606
					c-0.159,12.268,3.228,24.281,4.597,36.473c1.589,14.149,0.467,28.621,3.585,42.514c2.228,9.926,6.553,19.237,10.899,28.435
					c4.027,8.523,8.098,17.025,12.213,25.505c3.646,7.514,6.8,18.272,12.191,24.634c3.73,4.401,11.472,5.272,16.773,7.069
					c8.446,2.862,16.918,5.646,25.415,8.352c5.529,1.76,11.163,3.503,16.964,3.592c11.873,0.183,22.636-6.475,32.623-12.898
					c2.483-1.597,5.087-3.328,6.358-5.992c0.892-1.869,1.024-3.998,1.13-6.066c1.506-29.486,0.679-59.09-2.472-88.446
					c-0.684-6.369-1.607-13.06-5.488-18.156c-10.39-13.639-30.674-4.044-41.053-15.275c-2.9-3.138-3.815-7.582-4.465-11.804
					c-2.657-17.243-0.643-34.402-2.506-51.563c-0.487-4.481-1.743-8.748-1.886-13.26c-0.12-3.8-0.151-7.636-1.016-11.359
					c-1.121-4.824-3.763-8.411-7.556-11.493c-4.517-3.67-9.102-7.033-12.916-11.49c-5.766-6.737-13.272-16.047-23.4-13.527"/>
			</g>
			<g>
				<path style="fill:#773D1D;" d="M215.628,189.46c0.649,30.606,1.299,61.211,1.948,91.817c0.229,10.798-0.43,23.444-9.31,29.592
					c-3.946,2.732-8.856,3.6-13.608,4.273c-4.11,0.582-8.477,1.037-12.261-0.67c-5.459-2.462-8.085-8.588-10.226-14.181
					c-4.377-11.432-8.754-22.863-13.131-34.295c-2.22-5.799-4.47-11.744-4.58-17.952c-0.112-6.289,1.981-12.384,4.047-18.325
					c2.375-6.828,4.787-13.733,8.731-19.792c3.726-5.723,8.707-10.514,13.877-14.976c4.482-3.867,9.322-7.621,15.045-9.132
					c5.723-1.511,12.554-0.258,16.141,4.451"/>
			</g>
			<g>
				<path style="fill:#FBD8CD;" d="M253.212,415.588c-4.644-9.868-12.605-17.262-22.542-21.192
					c-12.521-4.951-36.701-7.923-41.483-23.293c-2.171-6.98,0.369-15.763,0.325-22.941c-0.06-9.664-0.207-19.337-1.041-28.969
					c-1.554-17.941-5.781-42.754-20.638-55.392c-3.414,0.737-6.907,1.247-10.349,0.914c-3.055-0.295-5.633-2.339-5.633-5.633
					c0-0.778,0.198-1.572,0.54-2.312c-3.064-0.228-6.135,0.28-8.78,1.813c-2.476,1.435-4.4,3.635-6.277,5.796
					c-14.075,16.206-28.572,33.187-34.099,53.928c-1.729,6.486-2.526,13.178-3.318,19.843c-1.394,11.729-2.788,23.459-4.181,35.188
					l35.8,69.16c37.52,1.273,76.508,4.541,113.564-0.692C258.28,439.945,257.41,424.51,253.212,415.588z"/>
			</g>
			<g>
				<g>
					<path style="fill:#F4EADC;" d="M252.259,249.059c-4.146-2.554-8.95-4.113-13.792-4.759c-6.08-0.811-11.006,0.476-16.753,2.088
						c-11.623,3.262-20.763,12.749-27.86,22.07c-5.123,6.727-9.162,14.265-12.151,22.166c-4.588,12.127-7.595,24.945-7.807,37.909
						c-0.16,9.777,1.385,19.88,6.566,28.173c7.729,12.372,23.624,19.028,37.863,15.855c5.711-1.272,11.027-3.939,15.96-7.085
						c5.347-3.41,10.338-7.431,14.511-12.206c6.72-7.689,11.274-17.095,14.459-26.734c4.371-13.229,6.815-28.747,6.373-42.741
						C269.195,270.064,264.444,256.565,252.259,249.059z"/>
				</g>
				<g>
					<path style="fill:#EAA98F;" d="M260.8,283.988c2.674-12.193-4.309-27.316-16.266-31.723
						c-11.074-4.082-25.131-1.796-33.138,6.885c-6.727,7.293-8.191,18.736-3.505,27.41c3.652,6.761,10.645,11.591,18.308,13.252
						c5.239,1.136,11.901,2.018,17.054,0.522c6.088-1.767,11.345-4.11,14.818-9.603C259.376,288.665,260.274,286.383,260.8,283.988z
						"/>
				</g>
				<g>
					<path style="fill:#EFBE5E;" d="M244.534,252.265c-11.074-4.082-25.131-1.796-33.138,6.885c-0.618,0.67-1.177,1.386-1.706,2.121
						c3.969,0.843,8.265,0.819,12.328,0.531c8.667-0.612,17.569-2.165,25.27-5.981c0.389,4.088,1.567,8.129,3.327,11.846
						c2.556,5.398,6.28,10.154,10.519,14.383C262.723,270.24,255.865,256.442,244.534,252.265z"/>
				</g>
				<g>
					<path style="fill:#E5D9C6;" d="M230.952,309.182c-11.581-2.031-22.898-5.425-33.8-9.803c-5.404-2.17-10.847-4.645-15.806-7.789
						c-0.213,0.575-0.424,1.15-0.629,1.727c3.985,2.48,8.263,4.561,12.62,6.466c11.876,5.194,24.386,8.833,37.119,11.196
						c11.956,2.218,24.154,2.997,36.3,2.616c0.132-0.616,0.255-1.236,0.379-1.855C255.028,312.247,242.878,311.274,230.952,309.182z
						"/>
					<path style="fill:#E5D9C6;" d="M210.797,326.981c-11.737-4.03-23.992-9.836-34.698-17.418
						c-0.134,0.638-0.264,1.276-0.387,1.916c10.245,7.096,21.788,12.576,33.044,16.747c16.283,6.034,33.785,8.601,51.039,7.297
						c0.286-0.647,0.58-1.289,0.85-1.942C243.839,334.965,226.918,332.517,210.797,326.981z"/>
					<path style="fill:#E5D9C6;" d="M215.545,343.216c-13.829-1.653-27.786-3.709-41.39-7.023c0.055,0.631,0.12,1.261,0.194,1.89
						c12.37,2.953,25.014,4.902,37.63,6.551c13.642,1.783,27.413,2.955,41.163,2.99c0.421-0.616,0.82-1.245,1.221-1.875
						C241.411,345.766,228.435,344.757,215.545,343.216z"/>
					<path style="fill:#E5D9C6;" d="M178.545,353.212c17.96,5.948,36.318,10.831,54.946,12.756c0.264-0.164,0.532-0.324,0.794-0.492
						c0.563-0.359,1.12-0.729,1.675-1.102c-19.829-1.781-39.368-7.056-58.428-13.451
						C177.847,351.696,178.182,352.46,178.545,353.212z"/>
				</g>
				<g>
					<path style="fill:#AF705A;" d="M221.731,266.368c-1.584,3.551-2.477,7.9,1.198,10.466c3.81,2.661,7.981-1.78,9.924-4.556
						c0.691-0.987-0.926-1.917-1.609-0.941c-1.484,2.12-3.173,4.19-5.971,4.279c-4.519,0.144-2.939-6.051-1.932-8.308
						C223.825,266.221,222.219,265.272,221.731,266.368L221.731,266.368z"/>
				</g>
				<g>
					<path style="fill:#AF705A;" d="M240.354,275.115c-2.159,3.179-2.684,8.59,1.178,10.728c3.248,1.798,8.091-0.958,9.368-4.078
						c0.455-1.113-1.348-1.592-1.797-0.496c-1.01,2.468-5.165,4.224-7.383,2.486c-2.265-1.774-1.043-5.804,0.244-7.699
						C242.641,275.059,241.025,274.127,240.354,275.115L240.354,275.115z"/>
				</g>
				<g>
					<path style="fill:#AF705A;" d="M228.535,278.687c-0.545,2.21,0.363,4.43,2.486,5.376c2.038,0.908,4.398-0.063,5.37-2.018
						c0.533-1.073-1.075-2.017-1.609-0.941c-1.401,2.82-5.158,0.949-4.449-1.922C230.621,278.015,228.823,277.52,228.535,278.687
						L228.535,278.687z"/>
				</g>
				<g style="opacity:0.27;">
					<path style="fill:#E891A7;" d="M218.557,275.962c-0.452-1.875-2.448-4.097-4.436-4.289c-1.997-0.193-3.564,1.338-3.382,3.345
						c0.133,1.473,0.824,2.916,1.986,3.831s2.804,1.239,4.181,0.7c0.692-0.27,1.321-0.77,1.608-1.455
						C218.794,277.426,218.726,276.664,218.557,275.962z"/>
				</g>
				<g style="opacity:0.27;">
					<path style="fill:#E891A7;" d="M245.546,292.207c-0.152-1.12-0.646-2.327-1.229-2.961c-1.652-1.794-5.699-3.469-7.119-0.441
						c-0.506,1.08-0.092,2.373,0.533,3.389c0.941,1.529,2.69,2.984,4.486,3.323c1.355,0.256,2.778-0.329,3.242-1.693
						C245.61,293.377,245.627,292.805,245.546,292.207z"/>
				</g>
			</g>
			<g>
				<g>
					<path style="fill:#F2EBDD;" d="M152.086,269.244c2.622,19.679,4.64,39.425,6.052,59.228c0.364,5.106,8.367,5.146,8,0
						c-1.413-19.802-3.43-39.549-6.052-59.228C159.416,264.215,151.407,264.149,152.086,269.244L152.086,269.244z"/>
				</g>
			</g>
			<g>
				<path style="fill:#DD9B85;" d="M158.849,242.298c-1.914,7.349,0.589,15.671,6.238,20.745c0.573,0.515,1.226,1.099,1.237,1.87
					c0.017,1.263-1.575,1.81-2.829,1.963c-8.216,1.002-16.559,0.953-24.763-0.146c1.829-11.677,3.957-23.307,6.381-34.875"/>
			</g>
			<g>
				<path style="fill:#EAA98F;" d="M184.827,320.539c-0.235-0.038-0.473,0.191-0.446,0.428c1.647-3.009,2.872-6.147,4.995-8.829
					c1.09-1.377,1.789-3.144,2.703-4.647c0.945-1.553,1.953-3.067,3.022-4.537c1.058-1.455,2.141-3.042,3.428-4.365
					c1.139-1.171,3.383-3.19,5.2-2.833c1.05,0.207,1.129,1.682,0.861,2.718c-0.445,1.723-1.139,3.381-2.045,4.912
					c-0.469,0.792-0.994,1.551-1.572,2.267c-0.366,0.454-1.474,1.295-1.382,1.849c2.57-0.422,5.162-1.447,7.69-2.112
					c2.684-0.706,5.38-1.372,8.084-1.996c0.731-0.169,1.616-0.291,2.126,0.259c1.452,1.568-1.641,3.945-2.651,4.705
					c-2.168,1.63-4.525,3.003-7.019,4.072c0.385,0.282,0.919,0.189,1.384,0.078c1.523-0.365,3.032-0.791,4.522-1.277
					c1.791-0.584,10.177-4.832,11.026-1.935c0.384,1.308-1.287,2.711-2.255,3.283c-1.936,1.145-3.872,2.289-5.808,3.434
					c-0.569,0.337-1.199,0.65-1.819,0.886c1.448-0.55,3.404-0.65,4.941-0.773c0.867-0.069,1.733-0.084,2.601-0.026
					c0.615,0.041,1.52-0.115,2.078,0.143c0.375,0.173,0.661,0.559,0.653,0.972c-0.034,1.749-3.399,2.385-4.581,2.97
					c-2.335,1.154-4.67,2.308-7.005,3.462c2.233-0.136,4.493,0.178,6.605,0.917c0.823,0.288,1.776,0.893,1.64,1.754
					c-0.127,0.804-1.099,1.123-1.905,1.236c-3.213,0.45-6.478,0.251-9.717,0.419c-2.708,0.14-5.402,0.538-8.035,1.186
					c-2.584,0.636-5.136,0.97-7.78,1.334c-5.649,0.777-11.286,1.635-16.91,2.574"/>
			</g>
			<g>
				<path style="fill:#EAA98F;" d="M270.642,217.633c2.275,9.105,4.55,18.21,6.825,27.314c0.923,3.693,1.88,7.466,3.987,10.637
					c3.701,5.571,10.372,8.414,16.903,9.86c15.209,3.367,32.535-2.392,43-13.98c2.484-2.751,4.599-5.926,5.585-9.499
					c2.377-8.611,4.663-18.747,5.174-27.652c0.793-13.831-7.184-27.364-18.762-34.971c-11.578-7.607-26.232-9.689-39.917-7.541
					c-8.398,1.318-16.889,4.364-22.678,10.59C260.232,193.714,267.549,205.255,270.642,217.633z"/>
			</g>
			<g>
				<path style="fill:#EAA98F;" d="M207.687,221.208c-6.416,12.748-17.413,22.551-32.155,23.412
					c-14.675,0.858-28.752-6.328-38.101-17.373c-10.635-12.563-9.046-27.207-7.9-43.062c0.775-10.734,2.887-22.358,10.956-29.479
					c4.117-3.632,9.39-5.687,14.693-7.108c8.251-2.211,16.867-3.052,25.39-2.48c8.767,0.588,17.995,2.996,23.858,9.54
					c7.032,7.848,7.255,19.959,9.808,29.599C217.503,196.596,213.273,210.111,207.687,221.208z"/>
			</g>
			<g>
				<g>
					<path style="fill:#773D1D;" d="M204.427,154.659c-1.911-2.133-4.184-3.82-6.678-5.154c-3.26-0.637-6.849-0.346-9.344,1.798
						c-8.597,7.39-2.871,22.081,1.999,29.815c3.684,5.85,9.227,9.242,14.158,13.85c0.893,0.834,6.175,4.451,10.044,6.521
						c1.039-5.762,1.115-11.617-0.372-17.23C211.682,174.618,211.459,162.506,204.427,154.659z"/>
				</g>
				<path style="fill:#683318;" d="M187.767,162.54c-0.487-1.097-2.093-0.148-1.609,0.941c6.05,13.628,16.284,24.855,29.138,32.151
					c0.039-0.711,0.06-1.421,0.063-2.131C203.197,186.336,193.565,175.599,187.767,162.54z"/>
				<path style="fill:#683318;" d="M190.533,156.778c-0.567-1.06-2.176-0.119-1.609,0.941c5.176,9.674,14.09,15.249,23.769,19.363
					c-0.136-0.725-0.273-1.454-0.411-2.185C203.406,170.995,195.314,165.713,190.533,156.778z"/>
			</g>
			<g>
				<path style="fill:#F2EBDD;" d="M135.233,261.426c2.898,2.139,6.622,2.784,10.215,3.049c8.046,0.594,16.207-0.416,23.866-2.955
					c1.072,1.726,2.144,3.453,3.216,5.179c0.199,0.321,0.406,0.671,0.377,1.047c-0.043,0.57-0.59,0.95-1.088,1.231
					c-11.373,6.433-25.521,5.886-38.109,2.385c-0.318-0.088-0.661-0.196-0.849-0.468c-0.175-0.252-0.17-0.583-0.159-0.89
					c0.057-1.592,0.119-3.217,0.68-4.709s1.716-2.853,3.263-3.232"/>
			</g>
			<g>
				<path style="fill:#844822;" d="M190.629,149.655c-4.295-1.938-9.128-2.483-13.794-2.564c-9.506-0.164-19.363,1.646-27.647,6.482
					c-3.505,2.046-7.068,4.802-10.105,7.449c-3.589,3.129-5.267,8.882-6.754,13.23c-0.705,2.062-1.381,4.133-2.043,6.209
					c-0.097,0.996-0.185,1.991-0.256,2.976c-0.189,2.61-0.388,5.187-0.544,7.729c12.844-0.393,25.682-2.806,37.408-8.024
					c12.154-5.409,25.192-14.706,31.511-26.764C195.819,153.944,193.973,151.164,190.629,149.655z"/>
			</g>
			<g>
				<path style="fill:#844822;" d="M150.124,240.525c-0.371-18.505-1.093-37.327-7.102-54.834l-5.642-4.052
					c-2.618,14.125-4.79,28.314-6.677,42.543c-1.66,16.084-2.914,32.234-5.419,48.192c-0.061,0.387-0.155,0.738-0.269,1.066
					c-0.47,4.53-0.933,9.06-1.394,13.59c-0.5,4.918-5.565,6.564-8.733,4.672c0.271,14.568,1.412,29.118,3.438,43.547
					c6.9,0.289,13.483-3.633,17.831-8.998c4.348-5.365,6.759-12.031,8.553-18.7C150.552,285.83,150.575,263.015,150.124,240.525z"/>
			</g>
			<g>
				<g>
					<path style="fill:#773D1D;" d="M135.964,184.432c20.892-5.495,42.801-11.656,57.553-28.516c0.788-0.9-0.525-2.224-1.318-1.318
						c-14.548,16.627-36.132,22.62-56.73,28.037C134.307,182.94,134.8,184.738,135.964,184.432L135.964,184.432z"/>
				</g>
				<g>
					<path style="fill:#773D1D;" d="M133.292,173.366c11.261-1.541,22.303-4.064,33.117-7.562
						c8.889-2.876,18.416-6.096,25.346-12.606c0.878-0.825-0.443-2.14-1.318-1.318c-7.494,7.041-18.158,10.149-27.765,13.159
						c-9.742,3.052-19.768,5.148-29.876,6.53C131.61,171.731,132.117,173.527,133.292,173.366L133.292,173.366z"/>
				</g>
				<g>
					<path style="fill:#773D1D;" d="M141.996,160.7c16.586-0.159,32.832-3.42,48.185-9.706c1.097-0.449,0.617-2.253-0.496-1.797
						c-15.202,6.225-31.259,9.483-47.689,9.64C140.795,158.847,140.794,160.711,141.996,160.7L141.996,160.7z"/>
				</g>
			</g>
			<g>
				<path style="fill:#EFC8BD;" d="M134.357,320.133c18.554-1.158,36.903-5.52,53.993-12.836c3.27,7.77,6.917,15.381,10.925,22.797
					c-14.526,10.384-32.017,16.571-49.842,17.629"/>
			</g>
			<g style="opacity:0.15;">
				<path style="fill:#683318;" d="M203.165,159.565c-8.298-1.621-16.737-3.25-25.152-2.432
					c-8.415,0.818-16.955,4.448-21.759,11.405c-2.905,4.207-4.242,9.281-5.288,14.285c-4.16,19.916-4.496,40.405-4.816,60.748
					c-0.281,17.836-0.562,35.672-0.842,53.508c-0.057,3.603-0.059,7.419,1.791,10.51c1.873,3.129,5.297,4.936,7.923,7.467
					c5.788,5.58,7.28,14.163,8.221,22.147c3.549,30.093,3.642,60.592,0.278,90.707c-0.321,2.869-0.689,5.795-1.944,8.395
					c-3.782,7.839-13.826,9.958-22.507,10.587c-4.117,0.299-8.522,0.411-12.056-1.723c-3.435-2.074-5.393-5.889-6.848-9.628
					c-4.321-11.102-5.718-23.112-6.463-35.001c-4.073-65.004,10.195-129.541,18.951-194.082
					c1.856-13.682,3.628-27.873,10.844-39.645c7.29-11.892,20.023-20.294,33.824-22.32c10.684-1.569,23.59,1.994,27.356,12.114"/>
			</g>
			<g>
				<path style="fill:#E6EAF4;" d="M219.487,217.55c0.102,0.951,0.217,1.906,0.37,2.877c0.438,2.784,0.746,5.588,0.923,8.401
					c0.369-4.363,0.799-8.846,0.537-13.198c-0.269-4.464-0.33-9-0.358-13.473c-0.042-6.702-0.008-13.407-0.313-20.104
					c-0.158-3.731-0.357-7.46-0.545-11.19c-0.455-2.596-1.095-5.155-2.247-7.516c-1.228-2.518-3.003-4.736-4.959-6.741
					c-14.15-14.509-32.513-13.801-51.24-12.36c-14.826,1.14-30.429,7.962-37.319,21.854c-4.747,9.572-5.85,20.478-6.878,31.112
					c-1.838,19.016-3.678,38.077-3.439,57.18c0.091,7.299,0.191,15.44-4.773,20.794c-6.368,6.869-16.779,7.526-23.038,15.09
					c-5.82,7.034-6.357,17.037-7.041,25.834c-1.05,13.515-1.437,27.081-1.159,40.634c0.154,7.519,0.44,15.395-2.88,22.143
					c-3.949,8.026-10.992,14.146-15.053,22.251c-4.089,8.161-2.457,19.364-1.921,28.289c0.265,4.418,1.059,9.487,4.841,11.785
					c9.031,5.484,26.581,3.549,36.662,3.909c9.88,0.352,19.772,0.39,29.655,0.113c6.13-0.172,13.703,1.066,19.165-2.442
					c5.796-3.723,6.698-12.819,8.305-19.054c2.147-8.329,0.792-17.57,0.362-26.074c-0.483-9.575-1.165-19.14-2.045-28.686
					c-0.228-2.479-0.332-4.966-0.44-7.452c-0.416-9.564-0.437-20.218-6.052-28.448c-2.106-3.087-6.008-4.61-7.626-7.886
					c-2.36-4.777-2.063-12.437-2.437-17.675c-1.773-24.861,1.583-49.69,2.356-74.519c0.373-11.983,0.142-23.973,0.368-35.958
					c0.159-8.417-0.482-18.282,2.523-26.335c3.596-9.637,12.42-15.098,22.147-16.284c7.94-0.968,16.718-1.123,24.526,0.933
					c3.575,0.941,8.527,1.839,11.391,4.337c6.733,5.873,10.093,15.175,11.848,23.694c2.027,9.843,4.022,19.802,5.313,29.813
					C219.205,214.668,219.332,216.104,219.487,217.55z"/>
			</g>
			<g>
				<path style="fill:#564E3D;" d="M315.626,381.221c2.663-4.119,5.168-8.35,7.307-12.767c4.224-8.721,6.629-17.318,3.364-26.693
					c-1.25-3.59-2.759-7.07-3.638-10.782c-0.599-2.527-2.884-13.118-0.339-14.53c-6.296,0.021-12.38-1.416-18.585-1.77
					c-1.825,4.309-2.72,9.311-4.007,13.83c-1.281,4.495-2.561,8.99-3.842,13.484c-1.224,4.298-2.451,8.606-3.193,13.013
					c-0.796,4.73-1.021,10.604,0.839,15.116c1.442,3.498,5.927,5.992,9.134,3.984"/>
			</g>
			<g>
				<path style="fill:#6D4122;" d="M276.857,191.434c-1.852-0.308-3.795-0.708-5.569-0.093c-1.609,0.558-2.824,1.866-3.969,3.127
					c-0.773,0.851-1.548,1.74-1.987,2.796c0.335,4.959,2.173,10.006,3.813,15.189c9.973-4.502,18.666-11.825,24.738-20.932
					C288.251,192.4,282.479,192.37,276.857,191.434z"/>
			</g>
			<g>
				<path style="fill:#D3927A;" d="M314.748,316.728c-0.92,1.192-2.366,1.89-3.841,2.197c-4.144,0.862-8.078,0.132-10.641-3.49
					c-1.817-2.567-2.527-5.744-2.975-8.857c-1.175-8.157-0.817-16.532,1.05-24.559c0.391-1.682,1.217-3.68,2.936-3.836
					c0.97-0.088,1.877,0.488,2.599,1.142c1.648,1.492,2.792,3.531,3.205,5.716"/>
			</g>
			<g>
				<path style="fill:#68604B;" d="M399.633,352.593c3.645-15.589,2.372-31.905-0.067-47.728
					c-1.878-12.182-4.483-24.403-9.877-35.486c-5.394-11.083-13.838-21.036-24.989-26.288c-4.859-2.289-9.237-3.035-13.376-2.837
					c-1.639-2.879-3.309-5.741-5.028-8.573c-0.114,0.177-0.237,0.352-0.373,0.525c-0.658,0.836-1.311,1.681-1.959,2.532
					c0.115,1.414-0.284,2.906-1.432,4.251c-6.338,7.422-11.115,16.06-14.443,25.217c-3.167,8.712-5.869,17.958-5.654,27.316
					c0.227,9.862,0.733,19.698,0.746,29.569c0.002,1.57-0.517,2.803-1.33,3.707c-0.048,0.376-0.081,0.742-0.135,1.123
					c-1.311,9.158-3.167,18.228-5.16,27.258c-1.424,6.451-4.272,12.956-9.648,16.796c-3.656,2.611-8.129,3.751-12.488,4.839
					c-10.623,2.652-21.246,5.303-31.869,7.955c-8.134,2.03-16.983,3.139-21.824,10.459c-5.18,7.833-6.454,16.523-6.217,25.789
					c0.263,10.293,0.141,19.75,11.343,23.135c16.331,4.935,33.544,5.597,50.473,6.347c13.306,0.59,26.66,0.24,39.951,1.012
					c7.659,0.445,15.579,2.036,23.256,1.219c7.958-0.847,14.584-4.721,20.767-9.623c10.753-8.525,14.062-15.23,9.12-28.194
					c-3.706-9.721-2.348-20.664,0.557-30.655C392.881,372.268,397.264,362.723,399.633,352.593z"/>
			</g>
			<g>
				<path style="fill:#68604B;" d="M317.313,251.553c0.237,0.968,0.477,1.936,0.71,2.905c1.701-3.32,3.543-6.573,5.477-9.774
					C321.428,246.966,319.36,249.25,317.313,251.553z"/>
			</g>
			<g>
				<path style="fill:#EAA98F;" d="M322.452,235.736c3.659,12.904,5.247,26.392,4.686,39.792c7.947,1.275,16.218,0.464,23.766-2.328
					c0.27-0.1,0.549-0.21,0.739-0.426c0.289-0.329,0.294-0.812,0.282-1.249c-0.494-16.963-5.734-33.764-14.972-48"/>
			</g>
			<g>
				<g>
					<path style="fill:#564E3D;" d="M329.645,280.341c0.748,17.33,1.496,34.66,2.244,51.989c0.194,4.487,7.195,4.512,7,0
						c-0.748-17.33-1.496-34.66-2.244-51.989C336.451,275.854,329.45,275.83,329.645,280.341L329.645,280.341z"/>
				</g>
			</g>
			<g>
				<path style="fill:#EAA98F;" d="M313.389,322.172c-2.534-0.252-4.15-2.798-5.087-5.166c-2.203-5.565-2.808-11.596-2.652-17.54
					c0.079-3.025,0.353-6.042,0.712-9.046c0.293-2.46,0.003-5.198,1.043-7.506c0.563-1.25,1.908-2.331,3.224-1.948
					c0.987,0.287,1.585,1.266,2.049,2.183c2.473,4.885,3.853,10.236,5.215,15.539c-0.031-1.368,0.319-2.742,1-3.929
					c0.314-0.548,0.778-1.103,1.407-1.151c1.145-0.087,1.645,1.402,1.753,2.546c0.6,6.334,0.944,12.693,1.029,19.055"/>
			</g>
			<g>
				<path style="fill:#877E64;" d="M378.919,347.461c-19.049-11.572-38.104-22.823-55.904-35.993
					c-3.512,4.176-7.023,8.352-10.535,12.527c-0.32,0.381-0.659,0.815-0.627,1.312c0.134,2.056,5.887,7.931,7.38,9.614
					c3.599,4.057,7.447,7.923,11.158,11.879c7.432,7.923,14.908,15.812,22.799,23.283"/>
			</g>
			<g>
				<path style="fill:#6D4122;" d="M333.353,179.343c-5.385-3.538-11.439-5.867-17.748-7.145c-0.235,0.047-0.471,0.094-0.705,0.144
					c-6.436,1.389-15.96,3.831-20.79,8.627c-3.28,3.257-0.812,10.893,2.092,13.917c3.249,3.384,8.824,4.857,13.124,6.301
					c6.692,2.247,13.979,4.362,21.031,4.93c4.224,0.34,8.581-0.03,12.425-1.938c1.957-0.971,3.881-2.391,4.545-4.472
					c0.612-1.916,0.035-4-0.697-5.874c-0.258-0.661-0.543-1.311-0.84-1.955C342.565,186.915,338.291,182.587,333.353,179.343z"/>
			</g>
			<g>
				<path style="fill:#6D4122;" d="M346.943,241.96c0.283-1.025,0.564-2.074,0.841-3.137c0.035-0.136,0.07-0.273,0.105-0.409
					c0.181-0.698,0.356-1.409,0.532-2.12c1.198-4.921,2.181-10.159,2.304-15.321c0.147-6.174-0.932-12.232-4.328-17.485
					c-2.723-4.211-6.95-5.903-11.879-5.482c-4.937,0.422-4.812,1.774-4.564,6.457c0.22,4.144,0.566,8.291,1.537,12.336
					c0.513,2.138,1.198,4.264,1.241,6.462c0.05,2.533-0.659,4.208-2.899,5.364c-1.988,1.025-4.287,1.375-6.504,1.285
					c-3.416-0.139-6.55-1.402-9.868-2.035c-3.554-0.678-7.171-1.177-10.797-1.07c-4.929,0.146-11.708,1.946-14.739,6.168
					c-1.057,1.471-1.855,3.257-3.44,4.135c-2.642,1.464-6.027-0.459-7.633-3.017c-1.606-2.558-2.132-5.65-3.521-8.333
					c-0.256-0.495-0.607-0.987-1.011-1.408c1.715,6.865,3.431,13.73,5.146,20.595c0.923,3.693,1.881,7.466,3.987,10.637
					c3.701,5.571,10.372,8.414,16.903,9.86c3.737,0.827,7.601,1.097,11.461,0.872c0.281-0.016,0.561-0.046,0.841-0.067
					c0.638-0.049,1.275-0.107,1.911-0.183c0.295-0.035,0.589-0.076,0.883-0.117c0.68-0.095,1.359-0.203,2.036-0.329
					c0.207-0.038,0.413-0.074,0.62-0.114c6.693-1.332,13.145-4.123,18.637-8.119c0.06-0.044,0.119-0.09,0.179-0.134
					c0.667-0.491,1.317-1.002,1.954-1.528c0.157-0.13,0.315-0.26,0.47-0.393c0.548-0.466,1.081-0.948,1.605-1.439
					c0.167-0.157,0.338-0.31,0.503-0.47c0.653-0.633,1.289-1.283,1.897-1.956c0.001-0.001,0.003-0.003,0.004-0.004
					c0.311-0.344,0.615-0.694,0.913-1.051c0.298-0.357,0.588-0.721,0.869-1.091c0.844-1.11,1.61-2.28,2.257-3.506
					c0.216-0.409,0.418-0.824,0.606-1.246c0.376-0.843,0.693-1.712,0.939-2.605C346.942,241.964,346.943,241.962,346.943,241.96z"/>
			</g>
			<g>
				<path style="fill:#564E3D;" d="M349.694,271.739c-7.922,2.797-16.461,3.83-24.821,3.001c-0.264-0.026-0.557-0.047-0.769,0.114
					c-0.205,0.155-0.268,0.431-0.316,0.684c-0.438,2.263-0.875,4.525-1.313,6.788c4.917,1.704,10.235,1.993,15.418,1.534
					c5.183-0.459,10.271-1.643,15.339-2.824c-0.44-2.928-1.061-5.83-1.858-8.682c-0.229-0.822-0.948-1.851-1.681-1.416"/>
			</g>
			<g style="opacity:0.15;">
				<path style="fill:#564E3D;" d="M324.985,184.816c10.681,28.961,13.124,60.202,15.469,90.98
					c1.804,23.676,3.335,48.784-7.637,69.841c-3.488,6.693-8.129,12.716-11.893,19.258c-11.934,20.738-14.382,46.696-6.538,69.3
					c2.274,6.554,6.018,13.425,12.598,15.622c3.816,1.274,8.048,0.729,11.816-0.682c8.357-3.128,14.617-10.114,20.031-17.207
					c14.861-19.473,26.208-42.328,28.381-66.727c0.869-9.758,0.265-19.582-0.477-29.351c-0.926-12.174-2.067-24.331-3.267-36.481
					c-1.078-10.915-2.209-21.855-4.615-32.556c-4.122-18.336-11.902-35.613-19.632-52.744c-3.458-7.662-7.111-15.59-13.525-21.024
					c-4.517-3.827-10.258-6.188-16.161-6.646"/>
			</g>
			<g>
				<path style="fill:#E5D9C6;" d="M350.356,319.239c-0.021,12.178-0.656,24.553-4.544,36.066
					c-4.694,13.902-13.857,25.769-19.585,39.26c-5.422,12.772-6.074,28.435-4.974,42.107c0.354,4.403,0.986,8.86,2.805,12.868
					c1.598,3.523,4.23,6.689,7.632,8.349h104.206c12.306-3.461,20.51-11.104,16.658-27.341c-2.513-10.592-1.826-22.274-2.63-33.122
					c-0.53-7.144-3.938-15.28-10.587-18.665c-3.614-1.84-8.005-2.218-11.056-4.898c-7.725-6.788-10.856-24.445-10.725-34.192
					c0.223-16.546,1.225-33.148-1.682-49.542c-2.592-14.619-8.778-29.372-19.486-39.916c-10.74-10.575-20.689-13.606-25.114-29.539
					c-3.392-12.211-5.819-24.752-10.119-36.576c-3.182-8.752-4.4-19.561-11.908-25.986c-16.727-14.311-43.507-10.832-61.695-2.12
					c-15.236,7.298-22.696,17.966-22.605,35.37l66.039-7.461C341.194,228.207,350.435,273.413,350.356,319.239z"/>
			</g>
			<g>
				<path style="fill:#E5D9C6;" d="M263.874,193.121c-0.258,2.606-0.326,5.231-0.203,7.847c23.27-0.564,46.454-4.573,68.563-11.854
					c1.73-0.57,3.767-1.551,3.855-3.371c0.129-2.664-3.664-3.297-6.309-2.958c-20.261,2.599-40.575,5.207-60.406,10.105"/>
			</g>
			<g>
				<path style="fill:#E0B14B;" d="M264.272,194.934c8.131,0.032,16.562-1.992,24.588-3.196c8.508-1.276,17.015-2.577,25.463-4.207
					c15.047-2.903,31.584-6.076,44.476-14.839c2.597-1.765,0.148-6.015-2.474-4.232c-12.587,8.555-28.639,11.406-43.305,14.345
					c-7.805,1.564-15.691,2.708-23.557,3.916c-8.194,1.258-16.9,3.344-25.191,3.311C261.11,190.02,261.111,194.922,264.272,194.934
					L264.272,194.934z"/>
			</g>
			<g>
				<path style="fill:#99614D;" d="M180.523,210.582c1.689-0.792,3.484-1.118,4.609,0.683c0.954,1.527-0.063,3.331-1.272,4.321
					c-0.931,0.762,0.396,2.073,1.318,1.318c2.004-1.641,2.726-4.23,1.563-6.58c-1.427-2.884-4.73-2.491-7.159-1.351
					C178.495,209.482,179.442,211.089,180.523,210.582L180.523,210.582z"/>
			</g>
			<g>
				<path style="fill:#99614D;" d="M175.227,204.3c-0.141-0.048-0.396,0.272-0.742,0.879c-0.351,0.602-0.783,1.5-1.395,2.503
					c-0.616,1-1.424,2.098-2.615,2.865c-1.176,0.784-2.678,1.14-4.026,0.527c-1.363-0.598-2.395-1.927-2.866-3.231
					c-0.485-1.317-0.51-2.718-0.429-3.871c0.208-2.337,0.66-3.849,0.349-3.959c-0.238-0.096-1.204,1.175-1.853,3.723
					c-0.288,1.273-0.474,2.91,0.048,4.725c0.527,1.773,1.776,3.632,3.894,4.588c1.047,0.474,2.26,0.576,3.313,0.365
					c1.061-0.214,1.974-0.687,2.717-1.247c1.506-1.131,2.334-2.609,2.827-3.796c0.497-1.211,0.714-2.215,0.828-2.914
					C175.383,204.754,175.367,204.348,175.227,204.3z"/>
			</g>
			<g>
				<path style="fill:#99614D;" d="M205.055,211.356c-0.309-0.102-0.901,1.347-2.043,3.4c-0.587,1.004-1.356,2.157-2.461,3.048
					c-1.058,0.856-2.613,1.479-4.108,1.343c-1.499-0.116-2.581-1.08-3.123-2.344c-0.554-1.263-0.601-2.603-0.503-3.749
					c0.095-1.151,0.295-2.118,0.376-2.803c0.089-0.686,0.08-1.092-0.061-1.139c-0.14-0.047-0.398,0.263-0.736,0.88
					c-0.329,0.62-0.765,1.543-1.081,2.812c-0.309,1.249-0.477,2.947,0.16,4.729c0.321,0.881,0.863,1.79,1.702,2.502
					c0.83,0.724,1.953,1.156,3.07,1.256c2.265,0.18,4.242-0.746,5.607-1.993c1.346-1.256,2.067-2.701,2.533-3.892
					C205.264,212.984,205.308,211.434,205.055,211.356z"/>
			</g>
			<g>
				<path style="fill:#99614D;" d="M175.015,192.767c0.106-0.255-0.664-0.903-2.173-1.41c-1.497-0.51-3.75-0.775-6.154-0.31
					c-2.402,0.473-4.391,1.566-5.585,2.602c-1.208,1.038-1.678,1.928-1.483,2.124c0.432,0.45,3.267-1.843,7.481-2.613
					C171.295,192.289,174.784,193.347,175.015,192.767z"/>
			</g>
			<g>
				<path style="fill:#99614D;" d="M209.063,205.062c0.252-0.124,0.167-0.97-0.465-2.146c-0.622-1.17-1.857-2.615-3.601-3.692
					c-1.747-1.073-3.593-1.526-4.918-1.555c-1.335-0.035-2.129,0.27-2.126,0.551c0.01,0.619,2.964,0.969,5.914,2.837
					C206.864,202.85,208.506,205.331,209.063,205.062z"/>
			</g>
			<g>
				<g>
					<path style="fill:#99614D;" d="M298.847,214.642c-2.928,0.105-5.131,2.618-4.951,5.532c0.181,2.93,3.131,4.879,5.845,4.909
						c1.223,0.014,1.222-1.883,0-1.896c-1.813-0.02-3.356-1.062-3.898-2.814c-0.583-1.882,1.213-3.77,3.004-3.834
						C300.066,216.495,300.07,214.598,298.847,214.642L298.847,214.642z"/>
				</g>
				<g>
					<path style="fill:#99614D;" d="M287.517,213.508c-0.325-0.008-0.502,1.394-0.892,3.47c-0.211,1.023-0.522,2.229-1.141,3.322
						c-0.615,1.078-1.633,2.128-2.863,2.573c-1.215,0.457-2.483,0.144-3.488-0.548c-1.012-0.678-1.674-1.642-2.126-2.544
						c-0.875-1.83-1.101-3.232-1.435-3.194c-0.148,0.01-0.278,0.36-0.328,1.005c-0.042,0.642-0.015,1.59,0.317,2.745
						c0.326,1.133,1.022,2.54,2.365,3.606c0.66,0.531,1.484,0.975,2.439,1.189c0.952,0.223,2.032,0.154,2.997-0.198
						c1.947-0.727,3.205-2.234,3.915-3.708c0.7-1.509,0.856-2.932,0.888-4.082C288.175,214.84,287.794,213.513,287.517,213.508z"/>
				</g>
				<g>
					<path style="fill:#99614D;" d="M317.816,209.5c-0.331,0.029-0.311,1.43-0.638,3.449c-0.183,1.003-0.498,2.141-1.19,3.157
						c-0.681,1.018-1.732,1.878-2.987,2.016c-1.271,0.161-2.599-0.342-3.538-1.073c-0.936-0.736-1.565-1.747-1.958-2.65
						c-0.786-1.841-0.853-3.23-1.189-3.232c-0.146-0.007-0.318,0.325-0.423,0.964c-0.099,0.636-0.133,1.588,0.14,2.749
						c0.272,1.151,0.868,2.54,2.117,3.703c1.23,1.115,3.062,1.954,5.121,1.713c1.024-0.113,1.982-0.558,2.724-1.132
						c0.748-0.58,1.307-1.286,1.713-2.003c0.824-1.45,1.016-2.936,1.013-4.085C318.664,210.742,318.08,209.469,317.816,209.5z"/>
				</g>
			</g>
			<g>
				<g>
					<path style="fill:#DD375B;" d="M293.27,232.686c0.303,0.645,0.66,1.266,1.103,1.823c2.879,3.618,8.042,4.489,11.33,0.761
						c0.43-0.488,0.789-1.051,1.073-1.66c0.665-1.428,0.883-3.098,0.67-4.65C302.509,229.357,297.719,230.284,293.27,232.686z"/>
				</g>
				<g>
					<path style="fill:#B2364B;" d="M306.832,233.462c-0.809-0.111-1.631-0.142-2.446-0.091c-2.701,0.169-5.396,1.064-7.482,2.787
						c-0.118,0.097-0.22,0.211-0.332,0.315c2.872,1.805,6.569,1.702,9.132-1.203c0.43-0.488,0.789-1.051,1.073-1.66
						C306.799,233.563,306.811,233.51,306.832,233.462z"/>
				</g>
			</g>
			<g>
				<g>
					<path style="fill:#B2364B;" d="M187.176,223.208c-0.358,0.662-0.772,1.296-1.272,1.856c-3.253,3.642-8.748,4.251-11.992,0.124
						c-0.424-0.54-0.769-1.155-1.032-1.814c-0.616-1.545-0.746-3.319-0.428-4.943C177.634,219.145,182.63,220.409,187.176,223.208z"
						/>
				</g>
				<g>
					<path style="fill:#DD375B;" d="M172.831,223.214c0.859-0.068,1.728-0.052,2.584,0.051c2.837,0.34,5.625,1.445,7.722,3.387
						c0.118,0.109,0.22,0.236,0.332,0.352c-3.136,1.731-7.028,1.401-9.556-1.816c-0.424-0.54-0.769-1.155-1.032-1.814
						C172.86,223.323,172.85,223.267,172.831,223.214z"/>
				</g>
			</g>
			<g style="opacity:0.16;">
				<path style="fill:#E891A7;" d="M166.951,222.917c2.434-2.346,0.837-6.953-2.686-8.673c-3.507-1.711-9.154-2.32-8.915,3.258
					c0.177,4.132,4.786,7.331,8.699,6.72C165.338,224.021,166.292,223.552,166.951,222.917z"/>
			</g>
			<g style="opacity:0.16;">
				<path style="fill:#E891A7;" d="M200.924,228.722c1.112-3.192-2.394-6.582-6.314-6.524c-3.902,0.057-9.215,2.065-6.482,6.934
					c2.024,3.606,7.581,4.378,10.796,2.066C199.984,230.435,200.623,229.586,200.924,228.722z"/>
			</g>
		</g>
	</g>
</g>
</svg>
